<?xml version="1.0" encoding="utf-8"?>
<!-- Generator: Adobe Illustrator 15.0.0, SVG Export Plug-In . SVG Version: 6.00 Build 0)  -->
<!DOCTYPE svg PUBLIC "-//W3C//DTD SVG 1.1//EN" "http://www.w3.org/Graphics/SVG/1.1/DTD/svg11.dtd">
<svg version="1.1" id="Layer_1" xmlns="http://www.w3.org/2000/svg" xmlns:xlink="http://www.w3.org/1999/xlink" x="0px" y="0px"
	 width="960px" height="400px" viewBox="0 0 960 400" enable-background="new 0 0 960 400" xml:space="preserve">
<g>
	<path fill="#B3B3B3" stroke="#333333" stroke-miterlimit="10" d="M98.609,228c-5.555,0-10.058,7.08-10.058,15.814
		s4.503,15.815,10.058,15.815s10.058-7.081,10.058-15.815S104.164,228,98.609,228z M98.609,254.846
		c-3.874,0-7.015-4.938-7.015-11.031c0-6.092,3.141-11.03,7.015-11.03s7.015,4.938,7.015,11.03
		C105.624,249.907,102.483,254.846,98.609,254.846z"/>
	<path fill="#B3B3B3" stroke="#333333" stroke-miterlimit="10" d="M98.609,249.5c-5.555,0-10.058,7.08-10.058,15.814
		s4.503,15.815,10.058,15.815s10.058-7.081,10.058-15.815S104.164,249.5,98.609,249.5z M98.609,276.346
		c-3.874,0-7.015-4.938-7.015-11.031c0-6.092,3.141-11.03,7.015-11.03s7.015,4.938,7.015,11.03
		C105.624,271.407,102.483,276.346,98.609,276.346z"/>
	<path fill="#B3B3B3" stroke="#333333" stroke-miterlimit="10" d="M98.609,228c-5.555,0-10.058,7.08-10.058,15.814
		s4.503,15.815,10.058,15.815s10.058-7.081,10.058-15.815S104.164,228,98.609,228z M98.609,254.846
		c-3.874,0-7.015-4.938-7.015-11.031c0-6.092,3.141-11.03,7.015-11.03s7.015,4.938,7.015,11.03
		C105.624,249.907,102.483,254.846,98.609,254.846z"/>
	<path fill="#B3B3B3" stroke="#333333" stroke-miterlimit="10" d="M98.609,206.783c-5.555,0-10.058,7.081-10.058,15.815
		s4.503,15.815,10.058,15.815s10.058-7.081,10.058-15.815S104.164,206.783,98.609,206.783z M98.609,233.629
		c-3.874,0-7.015-4.938-7.015-11.031s3.141-11.031,7.015-11.031s7.015,4.938,7.015,11.031S102.483,233.629,98.609,233.629z"/>
	<path fill="#B3B3B3" stroke="#333333" stroke-miterlimit="10" d="M94.681,250.753c0,0-3.017,2.468-3.995,4.837
		c-0.979,2.37,1.998,3.823,1.998,3.823s1.868-5.345,5.926-5.129C98.609,254.284,97.36,250.339,94.681,250.753z"/>
	<path fill="#B3B3B3" stroke="#333333" stroke-miterlimit="10" d="M94.681,229.753c0,0-3.017,2.468-3.995,4.837
		c-0.979,2.37,1.998,3.823,1.998,3.823s1.868-5.345,5.926-5.129C98.609,233.284,97.36,229.339,94.681,229.753z"/>
	<path fill="#B3B3B3" stroke="#333333" stroke-miterlimit="10" d="M98.609,186c-5.555,0-10.058,7.081-10.058,15.815
		s4.503,15.815,10.058,15.815s10.058-7.081,10.058-15.815S104.164,186,98.609,186z M98.609,212.846
		c-3.874,0-7.015-4.938-7.015-11.031s3.141-11.031,7.015-11.031s7.015,4.938,7.015,11.031S102.483,212.846,98.609,212.846z"/>
	<path fill="#B3B3B3" stroke="#333333" stroke-miterlimit="10" d="M98.609,186c-5.555,0-10.058,7.081-10.058,15.815
		s4.503,15.815,10.058,15.815s10.058-7.081,10.058-15.815S104.164,186,98.609,186z M98.609,212.846
		c-3.874,0-7.015-4.938-7.015-11.031s3.141-11.031,7.015-11.031s7.015,4.938,7.015,11.031S102.483,212.846,98.609,212.846z"/>
	<path fill="#B3B3B3" stroke="#333333" stroke-miterlimit="10" d="M98.609,164.783c-5.555,0-10.058,7.081-10.058,15.815
		s4.503,15.815,10.058,15.815s10.058-7.081,10.058-15.815S104.164,164.783,98.609,164.783z M98.609,191.629
		c-3.874,0-7.015-4.938-7.015-11.031s3.141-11.031,7.015-11.031s7.015,4.938,7.015,11.031S102.483,191.629,98.609,191.629z"/>
	<path fill="#B3B3B3" stroke="#333333" stroke-miterlimit="10" d="M94.681,208.753c0,0-3.017,2.468-3.995,4.837
		s1.998,3.823,1.998,3.823s1.868-5.345,5.926-5.129C98.609,212.284,97.36,208.339,94.681,208.753z"/>
	<path fill="#B3B3B3" stroke="#333333" stroke-miterlimit="10" d="M94.681,187.753c0,0-3.017,2.468-3.995,4.837
		s1.998,3.823,1.998,3.823s1.868-5.345,5.926-5.129C98.609,191.284,97.36,187.339,94.681,187.753z"/>
	<path fill="#B3B3B3" stroke="#333333" stroke-miterlimit="10" d="M98.609,143c-5.555,0-10.058,7.081-10.058,15.815
		s4.503,15.815,10.058,15.815s10.058-7.081,10.058-15.815S104.164,143,98.609,143z M98.609,169.846
		c-3.874,0-7.015-4.938-7.015-11.031s3.141-11.031,7.015-11.031s7.015,4.938,7.015,11.031S102.483,169.846,98.609,169.846z"/>
	<path fill="#B3B3B3" stroke="#333333" stroke-miterlimit="10" d="M98.609,143c-5.555,0-10.058,7.081-10.058,15.815
		s4.503,15.815,10.058,15.815s10.058-7.081,10.058-15.815S104.164,143,98.609,143z M98.609,169.846
		c-3.874,0-7.015-4.938-7.015-11.031s3.141-11.031,7.015-11.031s7.015,4.938,7.015,11.031S102.483,169.846,98.609,169.846z"/>
	<path fill="#B3B3B3" stroke="#333333" stroke-miterlimit="10" d="M98.609,121.783c-5.555,0-10.058,7.081-10.058,15.815
		s4.503,15.815,10.058,15.815s10.058-7.081,10.058-15.815S104.164,121.783,98.609,121.783z M98.609,148.629
		c-3.874,0-7.015-4.938-7.015-11.031s3.141-11.031,7.015-11.031s7.015,4.938,7.015,11.031S102.483,148.629,98.609,148.629z"/>
	<path fill="#B3B3B3" stroke="#333333" stroke-miterlimit="10" d="M94.681,165.753c0,0-3.017,2.468-3.995,4.837
		s1.998,3.823,1.998,3.823s1.868-5.345,5.926-5.129C98.609,169.284,97.36,165.339,94.681,165.753z"/>
	<path fill="#B3B3B3" stroke="#333333" stroke-miterlimit="10" d="M94.681,144.753c0,0-3.017,2.468-3.995,4.837
		s1.998,3.823,1.998,3.823s1.868-5.345,5.926-5.129C98.609,148.284,97.36,144.339,94.681,144.753z"/>
	<path fill="#B3B3B3" stroke="#333333" stroke-miterlimit="10" d="M98.609,100c-5.555,0-10.058,7.081-10.058,15.815
		s4.503,15.815,10.058,15.815s10.058-7.081,10.058-15.815S104.164,100,98.609,100z M98.609,126.846
		c-3.874,0-7.015-4.938-7.015-11.031s3.141-11.031,7.015-11.031s7.015,4.938,7.015,11.031S102.483,126.846,98.609,126.846z"/>
	<path fill="#B3B3B3" stroke="#333333" stroke-miterlimit="10" d="M98.609,100c-5.555,0-10.058,7.081-10.058,15.815
		s4.503,15.815,10.058,15.815s10.058-7.081,10.058-15.815S104.164,100,98.609,100z M98.609,126.846
		c-3.874,0-7.015-4.938-7.015-11.031s3.141-11.031,7.015-11.031s7.015,4.938,7.015,11.031S102.483,126.846,98.609,126.846z"/>
	<path fill="#B3B3B3" stroke="#333333" stroke-miterlimit="10" d="M98.609,78.783c-5.555,0-10.058,7.081-10.058,15.815
		s4.503,15.815,10.058,15.815s10.058-7.081,10.058-15.815S104.164,78.783,98.609,78.783z M98.609,105.629
		c-3.874,0-7.015-4.938-7.015-11.031s3.141-11.031,7.015-11.031s7.015,4.938,7.015,11.031S102.483,105.629,98.609,105.629z"/>
	<path fill="#B3B3B3" stroke="#333333" stroke-miterlimit="10" d="M94.681,122.753c0,0-3.017,2.468-3.995,4.837
		s1.998,3.823,1.998,3.823s1.868-5.345,5.926-5.129C98.609,126.284,97.36,122.339,94.681,122.753z"/>
	<path fill="#B3B3B3" stroke="#333333" stroke-miterlimit="10" d="M94.681,101.753c0,0-3.017,2.468-3.995,4.837
		s1.998,3.823,1.998,3.823s1.868-5.345,5.926-5.129C98.609,105.284,97.36,101.339,94.681,101.753z"/>
	<path fill="#B3B3B3" stroke="#333333" stroke-miterlimit="10" d="M98.609,57c-5.555,0-10.058,7.081-10.058,15.815
		S93.055,88.63,98.609,88.63s10.058-7.081,10.058-15.815S104.164,57,98.609,57z M98.609,83.846c-3.874,0-7.015-4.938-7.015-11.031
		s3.141-11.031,7.015-11.031s7.015,4.938,7.015,11.031S102.483,83.846,98.609,83.846z"/>
	<path fill="#B3B3B3" stroke="#333333" stroke-miterlimit="10" d="M98.609,57c-5.555,0-10.058,7.081-10.058,15.815
		S93.055,88.63,98.609,88.63s10.058-7.081,10.058-15.815S104.164,57,98.609,57z M98.609,83.846c-3.874,0-7.015-4.938-7.015-11.031
		s3.141-11.031,7.015-11.031s7.015,4.938,7.015,11.031S102.483,83.846,98.609,83.846z"/>
	<path fill="#B3B3B3" stroke="#333333" stroke-miterlimit="10" d="M98.609,35.783c-5.555,0-10.058,7.081-10.058,15.815
		s4.503,15.815,10.058,15.815s10.058-7.081,10.058-15.815S104.164,35.783,98.609,35.783z M98.609,62.629
		c-3.874,0-7.015-4.938-7.015-11.031s3.141-11.031,7.015-11.031s7.015,4.938,7.015,11.031S102.483,62.629,98.609,62.629z"/>
	<path fill="#B3B3B3" stroke="#333333" stroke-miterlimit="10" d="M94.681,79.753c0,0-3.017,2.468-3.995,4.837
		s1.998,3.823,1.998,3.823s1.868-5.345,5.926-5.129C98.609,83.284,97.36,79.339,94.681,79.753z"/>
	<path fill="#B3B3B3" stroke="#333333" stroke-miterlimit="10" d="M94.681,58.753c0,0-3.017,2.468-3.995,4.837
		s1.998,3.823,1.998,3.823s1.868-5.345,5.926-5.129C98.609,62.284,97.36,58.339,94.681,58.753z"/>
	<path fill="#B3B3B3" stroke="#333333" stroke-miterlimit="10" d="M98.609,14c-5.555,0-10.058,7.081-10.058,15.815
		S93.055,45.63,98.609,45.63s10.058-7.081,10.058-15.815S104.164,14,98.609,14z M98.609,40.846c-3.874,0-7.015-4.938-7.015-11.031
		s3.141-11.031,7.015-11.031s7.015,4.938,7.015,11.031S102.483,40.846,98.609,40.846z"/>
	<path fill="#B3B3B3" stroke="#333333" stroke-miterlimit="10" d="M98.609,14c-5.555,0-10.058,7.081-10.058,15.815
		S93.055,45.63,98.609,45.63s10.058-7.081,10.058-15.815S104.164,14,98.609,14z M98.609,40.846c-3.874,0-7.015-4.938-7.015-11.031
		s3.141-11.031,7.015-11.031s7.015,4.938,7.015,11.031S102.483,40.846,98.609,40.846z"/>
	<path fill="#B3B3B3" stroke="#333333" stroke-miterlimit="10" d="M98.609-7.217c-5.555,0-10.058,7.081-10.058,15.815
		s4.503,15.815,10.058,15.815s10.058-7.081,10.058-15.815S104.164-7.217,98.609-7.217z M98.609,19.629
		c-3.874,0-7.015-4.938-7.015-11.031s3.141-11.031,7.015-11.031s7.015,4.938,7.015,11.031S102.483,19.629,98.609,19.629z"/>
	<path fill="#B3B3B3" stroke="#333333" stroke-miterlimit="10" d="M94.681,36.753c0,0-3.017,2.468-3.995,4.837
		s1.998,3.823,1.998,3.823s1.868-5.345,5.926-5.129C98.609,40.284,97.36,36.339,94.681,36.753z"/>
	<path fill="#B3B3B3" stroke="#333333" stroke-miterlimit="10" d="M94.681,15.753c0,0-3.017,2.468-3.995,4.837
		s1.998,3.823,1.998,3.823s1.868-5.345,5.926-5.129C98.609,19.284,97.36,15.339,94.681,15.753z"/>
	<path fill="#B3B3B3" stroke="#333333" stroke-miterlimit="10" d="M98.609-29c-5.555,0-10.058,7.081-10.058,15.815
		S93.055,2.63,98.609,2.63s10.058-7.081,10.058-15.815S104.164-29,98.609-29z M98.609-2.154c-3.874,0-7.015-4.938-7.015-11.031
		s3.141-11.031,7.015-11.031s7.015,4.938,7.015,11.031S102.483-2.154,98.609-2.154z"/>
	<path fill="#B3B3B3" stroke="#333333" stroke-miterlimit="10" d="M98.609-29c-5.555,0-10.058,7.081-10.058,15.815
		S93.055,2.63,98.609,2.63s10.058-7.081,10.058-15.815S104.164-29,98.609-29z M98.609-2.154c-3.874,0-7.015-4.938-7.015-11.031
		s3.141-11.031,7.015-11.031s7.015,4.938,7.015,11.031S102.483-2.154,98.609-2.154z"/>
	<path fill="#B3B3B3" stroke="#333333" stroke-miterlimit="10" d="M98.609-50.217c-5.555,0-10.058,7.081-10.058,15.815
		s4.503,15.815,10.058,15.815s10.058-7.081,10.058-15.815S104.164-50.217,98.609-50.217z M98.609-23.371
		c-3.874,0-7.015-4.938-7.015-11.031s3.141-11.031,7.015-11.031s7.015,4.938,7.015,11.031S102.483-23.371,98.609-23.371z"/>
	<path fill="#B3B3B3" stroke="#333333" stroke-miterlimit="10" d="M94.681-6.247c0,0-3.017,2.468-3.995,4.837
		s1.998,3.823,1.998,3.823s1.868-5.345,5.926-5.129C98.609-2.716,97.36-6.661,94.681-6.247z"/>
	<path fill="#B3B3B3" stroke="#333333" stroke-miterlimit="10" d="M94.681-27.247c0,0-3.017,2.468-3.995,4.837
		s1.998,3.823,1.998,3.823s1.868-5.345,5.926-5.129C98.609-23.716,97.36-27.661,94.681-27.247z"/>
</g>
<g>
	<path fill="#333333" stroke="#333333" stroke-width="3" stroke-miterlimit="10" d="M587.648,303.622l0.144,0.063
		c0.066-0.508,0.251-1.013,0.304-1.523c8.838-3.807,17.419,2.255,17.419,2.255c-0.09-0.512-0.149-1.417-0.259-1.417h0.005
		c-4.046-18-17.77-17.169-17.77-17.169l-0.042,0.04c-0.099-0.498-0.212-1.003-0.324-1.497c7.136-6.462,17.148-3.537,17.148-3.537
		c-0.25-0.456-0.504-0.882-0.762-1.3c-0.001,0-0.002-0.002-0.003-0.003c-9.712-15.936-22.345-10.457-22.345-10.457l-0.021,0.089
		c-0.256-0.441-0.513-0.881-0.781-1.314c4.669-8.417,15.088-8.873,15.088-8.873c-0.383-0.351-0.76,0.02-1.141-0.98
		c-0.001,0-0.001,0-0.002,0c-14.338-11-24.523-2.682-24.523-2.682l0.01,0.103c-0.387-0.337-0.77-0.68-1.166-1.006
		c1.703-9.471,11.343-13.268,11.343-13.268c-0.477-0.208-0.47-0.403-1.47-0.576v0.008c-17-6.678-24.004,5.385-24.004,5.385
		l0.069,0.075c-0.471-0.192-0.926-0.379-1.403-0.559c-1.439-9.509,6.532-15.818,6.532-15.818c-0.518-0.044-1.003,0.338-1.493,0.338
		c-0.001,0-0.001,0-0.002,0c-18.651-1-21.049,12.45-21.049,12.45l0.064-0.14c-1.064-0.062-2.135-0.206-3.215-0.206
		c-0.095,0-0.188-0.045-0.284-0.044c-4.758-8.371,0.284-17.534,0.284-17.534c-19.249,5.75-16.5,19.987-16.5,19.987l0.061,0.023
		c-0.48,0.152-0.955,0.316-1.43,0.481c-7.2-6.386-5.379-16.659-5.379-16.659c-16.363,11.658-9.16,24.256-9.16,24.256l0.087,0.01
		c-0.407,0.301-0.804,0.612-1.202,0.924c-8.889-3.715-10.484-14.033-10.484-14.033c-11.721,16.316-0.836,25.914-0.836,25.914
		l0.093-0.019c-0.287,0.412-0.567,0.828-0.844,1.249c-9.606-0.649-14.456-9.881-14.456-9.881
		c-5.824,19.227,7.576,24.796,7.576,24.796l0.074-0.044c-0.139,0.49-0.285,0.978-0.411,1.473
		c-9.293,2.472-16.851-4.707-16.851-4.707c0.697,20.077,15.178,21.021,15.178,21.021l0.055-0.063
		c0.025,0.507,0.073,1.007,0.112,1.51c-8.002,5.364-17.491,1.002-17.491,1.002c7.141,18.777,21.152,14.993,21.152,14.993
		l0.032-0.079c0.188,0.474,0.377,0.946,0.579,1.413c-5.844,7.641-16.217,6.578-16.217,6.578c12.82,15.466,24.859,7.359,24.859,7.359
		l0.006-0.104c0.333,0.39,0.662,0.782,1.006,1.162c-3.061,9.125-13.227,11.469-13.227,11.469c0.438,0.27,0.869,0.516,1.299,0.756
		l0,0c16.27,9.147,24.605-1.817,24.605-1.817l-0.023-0.085c0.432,0.257,0.867,0.508,1.307,0.752
		c0.05,9.625-8.799,15.337-8.799,15.337c0.502,0.114,0.988,0.501,1.473,0.501c0.001,0,0.002,0,0.002,0
		c18.352,3,22.699-9.869,22.699-9.869l-0.041-0.162c0.491,0.102,0.99,0.132,1.486,0.22c3.16,9.097-3.457,17.587-3.457,17.587
		c0.514-0.053,1.004,0.225,1.49,0.225c0.001,0,0.002,0,0.002,0c18.466-3,18.363-16.921,18.363-16.921l-0.082-0.282
		c0.51-0.062,1.021-0.229,1.526-0.305c5.916,7.586,2.091,17.297,2.091,17.297c0.469-0.217,0.176-0.495,1.176-0.721
		c0-0.001,0-0.001,0-0.002c16-8.522,12.232-21.523,12.232-21.523l0.016-0.022c0.454-0.222,0.943-0.457,1.39-0.69
		c8.059,5.27,7.527,15.699,7.527,15.699c0.375-0.356,0.835-0.71,0.835-1.064c0-0.001,0-0.001,0-0.002
		c13-13.428,4.712-24.266,4.712-24.266l0.032,0.002c0.359-0.356,0.769-0.725,1.118-1.092c9.338,2.379,12.448,12.358,12.448,12.358
		c0.24-0.459-0.311-0.905,0.689-1.35c0-0.001,0-0.002,0-0.002c7-16.895-3.607-24.408-3.607-24.408l-0.079,0.029
		c0.227-0.454,0.444-0.912,0.657-1.373c9.596-0.752,15.284,7.688,15.284,7.688c0.08-0.513-0.255-1.003-0.255-1.491
		c0-0.001,0-0.002,0-0.003C600.5,307.006,587.648,303.622,587.648,303.622z"/>
	<g>
		<path fill="#B3B3B3" d="M534,224.5c0,0-5.249,9.5,0,18l-7.25,6.5l-9.25-4.5C517.5,244.5,514.751,230.25,534,224.5z"/>
		<circle fill="#B3B3B3" cx="534" cy="296.5" r="54.5"/>
		<circle fill="#999999" cx="534" cy="296.5" r="38.902"/>
		<g>
			<path fill="#B3B3B3" d="M534,224.5c0,0-5.249,9.5,0,18l-7.25,6.5l-9.25-4.5C517.5,244.5,514.751,230.25,534,224.5z"/>
			<path fill="#CCCCCC" d="M534,242.5c-5.249-8.5,0-18,0-18c-0.494,0.147-0.964,0.304-1.43,0.463
				c-3.878,4.436-7.863,11.879-7.174,23.378L526.75,249L534,242.5z"/>
		</g>
		<g>
			<path fill="#B3B3B3" d="M510.752,228.357c0,0-1.9,10.686,5.812,17.036l-4.764,8.493l-10.209-1.272
				C501.592,252.613,494.389,240.015,510.752,228.357z"/>
			<path fill="#CCCCCC" d="M516.564,245.393c-7.713-6.35-5.812-17.036-5.812-17.036c-0.42,0.299-0.814,0.599-1.205,0.9
				c-2.238,5.45-3.607,13.782,0.76,24.442l1.494,0.187L516.564,245.393z"/>
		</g>
		<g>
			<path fill="#B3B3B3" d="M489.992,239.515c0,0,1.652,10.727,11.002,14.246l-1.766,9.576l-10.072,2.092
				C489.156,265.429,478.271,255.831,489.992,239.515z"/>
			<path fill="#CCCCCC" d="M500.994,253.761c-9.35-3.52-11.002-14.246-11.002-14.246c-0.301,0.418-0.576,0.83-0.848,1.24
				c-0.359,5.88,1.035,14.208,8.611,22.888l1.473-0.306L500.994,253.761z"/>
		</g>
		<g>
			<path fill="#B3B3B3" d="M473.949,256.777c0,0,5.027,9.618,15.012,9.931l1.422,9.633l-8.857,5.232
				C481.525,281.573,468.125,276.004,473.949,256.777z"/>
			<path fill="#CCCCCC" d="M488.961,266.708c-9.984-0.312-15.012-9.931-15.012-9.931c-0.15,0.493-0.279,0.972-0.402,1.448
				c1.559,5.681,5.568,13.112,15.539,18.881l1.297-0.766L488.961,266.708z"/>
		</g>
		<g>
			<path fill="#B3B3B3" d="M464.338,278.296c0,0,7.865,7.479,17.416,4.551l4.455,8.658l-6.693,7.812
				C479.516,299.316,465.035,298.373,464.338,278.296z"/>
			<path fill="#CCCCCC" d="M481.754,282.847c-9.551,2.928-17.416-4.551-17.416-4.551c0.018,0.515,0.051,1.009,0.088,1.5
				c3.311,4.873,9.504,10.612,20.805,12.852l0.979-1.143L481.754,282.847z"/>
		</g>
		<g>
			<path fill="#B3B3B3" d="M462.191,301.765c0,0,9.859,4.539,17.953-1.315l7.012,6.755l-3.812,9.554
				C483.344,316.758,469.332,320.542,462.191,301.765z"/>
			<path fill="#CCCCCC" d="M480.145,300.449c-8.094,5.854-17.953,1.315-17.953,1.315c0.184,0.481,0.373,0.938,0.566,1.392
				c4.707,3.543,12.422,6.976,23.84,5.446l0.559-1.398L480.145,300.449z"/>
		</g>
		<g>
			<path fill="#B3B3B3" d="M467.738,324.67c0,0,10.795,1.112,16.564-7.042l8.818,4.129l-0.523,10.272
				C492.598,332.029,480.559,340.136,467.738,324.67z"/>
			<path fill="#CCCCCC" d="M484.303,317.628c-5.77,8.154-16.564,7.042-16.564,7.042c0.328,0.396,0.656,0.768,0.984,1.134
				c5.598,1.833,14.01,2.591,24.322-2.543l0.076-1.504L484.303,317.628z"/>
		</g>
		<g>
			<path fill="#B3B3B3" d="M480.383,344.557c0,0,10.576-2.433,13.404-12.013l9.68,1.06l2.82,9.892
				C506.287,343.495,497.51,355.055,480.383,344.557z"/>
			<path fill="#CCCCCC" d="M493.787,332.544c-2.828,9.58-13.404,12.013-13.404,12.013c0.438,0.27,0.869,0.516,1.299,0.756
				c5.889-0.073,14.094-2.072,22.197-10.26l-0.412-1.449L493.787,332.544z"/>
		</g>
		<g>
			<path fill="#B3B3B3" d="M498.771,359.295c0,0,9.225-5.717,8.809-15.697l9.502-2.122l5.863,8.451
				C522.945,349.927,518.371,363.701,498.771,359.295z"/>
			<path fill="#CCCCCC" d="M507.58,343.598c0.416,9.98-8.809,15.697-8.809,15.697c0.502,0.114,0.988,0.208,1.473,0.297
				c5.551-1.972,12.67-6.513,17.697-16.878l-0.859-1.238L507.58,343.598z"/>
		</g>
		<g>
			<path fill="#B3B3B3" d="M520.934,367.307c0,0,6.885-8.389,3.268-17.7l8.309-5.077l8.279,6.105
				C540.789,350.635,540.906,365.148,520.934,367.307z"/>
			<path fill="#CCCCCC" d="M524.201,349.606c3.617,9.312-3.268,17.7-3.268,17.7c0.514-0.054,1.004-0.122,1.49-0.194
				c4.617-3.659,9.889-10.255,11.299-21.688l-1.213-0.895L524.201,349.606z"/>
		</g>
		<g>
			<path fill="#B3B3B3" d="M544.496,367.733c0,0,3.809-10.163-2.623-17.808l6.225-7.488l9.807,3.105
				C557.904,345.543,562.701,359.241,544.496,367.733z"/>
			<path fill="#CCCCCC" d="M541.873,349.926c6.432,7.645,2.623,17.808,2.623,17.808c0.469-0.217,0.91-0.439,1.348-0.665
				c3.189-4.955,6.049-12.898,3.691-24.176l-1.438-0.455L541.873,349.926z"/>
		</g>
		<g>
			<path fill="#B3B3B3" d="M566.934,360.529c0,0,0.324-10.849-8.232-16.008l3.475-9.097l10.283-0.228
				C572.459,335.197,581.422,346.613,566.934,360.529z"/>
			<path fill="#CCCCCC" d="M558.701,344.521c8.557,5.159,8.232,16.008,8.232,16.008c0.375-0.356,0.721-0.71,1.061-1.064
				c1.42-5.721,1.561-14.161-4.312-24.073l-1.506,0.033L558.701,344.521z"/>
		</g>
		<g>
			<path fill="#B3B3B3" d="M585.844,346.466c0,0-3.197-10.372-12.961-12.492l0.352-9.731l9.66-3.536
				C582.895,320.706,595.062,328.617,585.844,346.466z"/>
			<path fill="#CCCCCC" d="M572.883,333.974c9.764,2.12,12.961,12.492,12.961,12.492c0.24-0.459,0.453-0.905,0.66-1.35
				c-0.504-5.873-3.096-13.907-11.855-21.392l-1.414,0.518L572.883,333.974z"/>
		</g>
		<g>
			<path fill="#B3B3B3" d="M599.199,327.05c0,0-6.375-8.784-16.299-7.639l-2.811-9.323l8.002-6.466
				C588.092,303.622,602.162,307.18,599.199,327.05z"/>
			<path fill="#CCCCCC" d="M582.9,319.411c9.924-1.146,16.299,7.639,16.299,7.639c0.08-0.513,0.137-1.003,0.189-1.491
				c-2.373-5.396-7.42-12.162-18.127-16.417l-1.172,0.946L582.9,319.411z"/>
		</g>
		<g>
			<path fill="#B3B3B3" d="M605.57,304.361c0,0-8.869-6.255-17.893-1.967l-5.67-7.916l5.486-8.704
				C587.494,285.775,601.959,284.599,605.57,304.361z"/>
			<path fill="#CCCCCC" d="M587.678,302.395c9.023-4.288,17.893,1.967,17.893,1.967c-0.09-0.512-0.193-0.994-0.303-1.473
				c-3.986-4.341-10.949-9.115-22.457-9.685l-0.803,1.274L587.678,302.395z"/>
		</g>
		<g>
			<path fill="#B3B3B3" d="M604.273,280.831c0,0-10.412-3.057-17.568,3.916l-7.922-5.662l2.381-10.009
				C581.164,269.077,594.475,263.293,604.273,280.831z"/>
			<path fill="#CCCCCC" d="M586.705,284.747c7.156-6.973,17.568-3.916,17.568-3.916c-0.25-0.456-0.504-0.879-0.762-1.297
				c-5.174-2.82-13.305-5.091-24.381-1.914l-0.348,1.465L586.705,284.747z"/>
		</g>
		<g>
			<path fill="#B3B3B3" d="M595.449,258.979c0,0-10.842,0.47-15.363,9.379l-9.326-2.8l-0.977-10.242
				C569.783,255.317,580.512,245.545,595.449,258.979z"/>
			<path fill="#CCCCCC" d="M580.086,268.359c4.521-8.91,15.363-9.379,15.363-9.379c-0.383-0.351-0.76-0.669-1.141-0.981
				c-5.807-0.999-14.234-0.522-23.691,6.061l0.143,1.5L580.086,268.359z"/>
		</g>
		<g>
			<path fill="#B3B3B3" d="M580.043,241.147c0,0-10.111,3.946-11.514,13.838l-9.73,0.361l-4.23-9.378
				C554.568,245.969,561.566,233.256,580.043,241.147z"/>
			<path fill="#CCCCCC" d="M568.529,254.985c1.402-9.892,11.514-13.838,11.514-13.838c-0.477-0.208-0.936-0.387-1.396-0.56
				c-5.818,0.93-13.643,4.102-20.467,13.385l0.619,1.374L568.529,254.985z"/>
		</g>
		<g>
			<path fill="#B3B3B3" d="M559.703,229.246c0,0-8.295,6.999-6.43,16.814l-9.092,3.483l-7.031-7.51
				C537.15,242.034,539.668,227.743,559.703,229.246z"/>
			<path fill="#CCCCCC" d="M553.273,246.061c-1.865-9.815,6.43-16.814,6.43-16.814c-0.518-0.044-1.012-0.065-1.502-0.08
				c-5.207,2.759-11.588,8.288-15.049,19.277l1.029,1.101L553.273,246.061z"/>
		</g>
		<path opacity="0.1" fill="#808080" d="M534,261.598c20.814,0,37.811,16.346,38.852,36.902c0.034-0.662,0.051-1.329,0.051-2
			c0-21.485-17.417-38.902-38.902-38.902c-21.484,0-38.901,17.417-38.901,38.902c0,0.671,0.017,1.338,0.051,2
			C496.189,277.944,513.187,261.598,534,261.598z"/>
		<path opacity="0.1" fill="#CCCCCC" d="M534,331.402c-20.813,0-37.81-16.347-38.851-36.902c-0.034,0.662-0.051,1.329-0.051,2
			c0,21.484,17.417,38.902,38.901,38.902c21.485,0,38.902-17.418,38.902-38.902c0-0.671-0.018-1.338-0.051-2
			C571.811,315.056,554.814,331.402,534,331.402z"/>
		<linearGradient id="SVGID_1_" gradientUnits="userSpaceOnUse" x1="530.5781" y1="259.1758" x2="532.5781" y2="284.8423">
			<stop  offset="0" style="stop-color:#FFFFFF;stop-opacity:0"/>
			<stop  offset="1" style="stop-color:#FFFFFF"/>
		</linearGradient>
		<path opacity="0.2" fill="url(#SVGID_1_)" d="M530.861,284.747l-5.543-26.171c0,0,4.715-1.591,10.354-0.937L534,285.082
			L530.861,284.747z"/>
		
			<linearGradient id="SVGID_2_" gradientUnits="userSpaceOnUse" x1="368.1211" y1="608.1191" x2="370.1211" y2="633.7856" gradientTransform="matrix(0.1395 -0.9902 0.9902 0.1395 -156.9594 574.3812)">
			<stop  offset="0" style="stop-color:#FFFFFF;stop-opacity:0"/>
			<stop  offset="1" style="stop-color:#FFFFFF"/>
		</linearGradient>
		<path opacity="0.2" fill="url(#SVGID_2_)" d="M521.924,297.969l-26.688,1.839c0,0-0.918-4.891,0.516-10.383l26.941,5.483
			L521.924,297.969z"/>
		
			<linearGradient id="SVGID_3_" gradientUnits="userSpaceOnUse" x1="-28.9302" y1="435.4307" x2="-26.9301" y2="461.0981" gradientTransform="matrix(-0.9987 -0.0509 0.0509 -0.9987 484.4481 767.3464)">
			<stop  offset="0" style="stop-color:#FFFFFF;stop-opacity:0"/>
			<stop  offset="1" style="stop-color:#FFFFFF"/>
		</linearGradient>
		<path opacity="0.2" fill="url(#SVGID_3_)" d="M536.538,308.398l4.202,26.42c0,0-4.789,1.349-10.388,0.407l3.067-27.321
			L536.538,308.398z"/>
		
			<linearGradient id="SVGID_4_" gradientUnits="userSpaceOnUse" x1="159.2061" y1="60.7153" x2="161.2061" y2="86.3827" gradientTransform="matrix(-0.0298 0.9996 -0.9996 -0.0298 636.8465 136.8659)">
			<stop  offset="0" style="stop-color:#FFFFFF;stop-opacity:0"/>
			<stop  offset="1" style="stop-color:#FFFFFF"/>
		</linearGradient>
		<path opacity="0.2" fill="url(#SVGID_4_)" d="M545.841,293.713l26.327-4.761c0,0,1.449,4.76,0.625,10.378l-27.379-2.49
			L545.841,293.713z"/>
		<circle fill="#808080" cx="534" cy="296.5" r="13.665"/>
		<circle fill="#333333" cx="534.001" cy="296.5" r="11.419"/>
	</g>
	<g>
		<path fill="#B3B3B3" d="M534,224.5c0,0-5.249,9.5,0,18l-7.25,6.5l-9.25-4.5C517.5,244.5,514.751,230.25,534,224.5z"/>
		<circle fill="#B3B3B3" cx="534" cy="296.5" r="54.5"/>
		<circle fill="#999999" cx="534" cy="296.5" r="38.902"/>
		<g>
			<path fill="#B3B3B3" d="M534,224.5c0,0-5.249,9.5,0,18l-7.25,6.5l-9.25-4.5C517.5,244.5,514.751,230.25,534,224.5z"/>
			<path fill="#CCCCCC" d="M534,242.5c-5.249-8.5,0-18,0-18c-0.494,0.147-0.964,0.304-1.43,0.463
				c-3.878,4.436-7.863,11.879-7.174,23.378L526.75,249L534,242.5z"/>
		</g>
		<g>
			<path fill="#B3B3B3" d="M510.752,228.357c0,0-1.9,10.686,5.812,17.036l-4.764,8.493l-10.209-1.272
				C501.592,252.613,494.389,240.015,510.752,228.357z"/>
			<path fill="#CCCCCC" d="M516.564,245.393c-7.713-6.35-5.812-17.036-5.812-17.036c-0.42,0.299-0.814,0.599-1.205,0.9
				c-2.238,5.45-3.607,13.782,0.76,24.442l1.494,0.187L516.564,245.393z"/>
		</g>
		<g>
			<path fill="#B3B3B3" d="M489.992,239.515c0,0,1.652,10.727,11.002,14.246l-1.766,9.576l-10.072,2.092
				C489.156,265.429,478.271,255.831,489.992,239.515z"/>
			<path fill="#CCCCCC" d="M500.994,253.761c-9.35-3.52-11.002-14.246-11.002-14.246c-0.301,0.418-0.576,0.83-0.848,1.24
				c-0.359,5.88,1.035,14.208,8.611,22.888l1.473-0.306L500.994,253.761z"/>
		</g>
		<g>
			<path fill="#B3B3B3" d="M473.949,256.777c0,0,5.027,9.618,15.012,9.931l1.422,9.633l-8.857,5.232
				C481.525,281.573,468.125,276.004,473.949,256.777z"/>
			<path fill="#CCCCCC" d="M488.961,266.708c-9.984-0.312-15.012-9.931-15.012-9.931c-0.15,0.493-0.279,0.972-0.402,1.448
				c1.559,5.681,5.568,13.112,15.539,18.881l1.297-0.766L488.961,266.708z"/>
		</g>
		<g>
			<path fill="#B3B3B3" d="M464.338,278.296c0,0,7.865,7.479,17.416,4.551l4.455,8.658l-6.693,7.812
				C479.516,299.316,465.035,298.373,464.338,278.296z"/>
			<path fill="#CCCCCC" d="M481.754,282.847c-9.551,2.928-17.416-4.551-17.416-4.551c0.018,0.515,0.051,1.009,0.088,1.5
				c3.311,4.873,9.504,10.612,20.805,12.852l0.979-1.143L481.754,282.847z"/>
		</g>
		<g>
			<path fill="#B3B3B3" d="M462.191,301.765c0,0,9.859,4.539,17.953-1.315l7.012,6.755l-3.812,9.554
				C483.344,316.758,469.332,320.542,462.191,301.765z"/>
			<path fill="#CCCCCC" d="M480.145,300.449c-8.094,5.854-17.953,1.315-17.953,1.315c0.184,0.481,0.373,0.938,0.566,1.392
				c4.707,3.543,12.422,6.976,23.84,5.446l0.559-1.398L480.145,300.449z"/>
		</g>
		<g>
			<path fill="#B3B3B3" d="M467.738,324.67c0,0,10.795,1.112,16.564-7.042l8.818,4.129l-0.523,10.272
				C492.598,332.029,480.559,340.136,467.738,324.67z"/>
			<path fill="#CCCCCC" d="M484.303,317.628c-5.77,8.154-16.564,7.042-16.564,7.042c0.328,0.396,0.656,0.768,0.984,1.134
				c5.598,1.833,14.01,2.591,24.322-2.543l0.076-1.504L484.303,317.628z"/>
		</g>
		<g>
			<path fill="#B3B3B3" d="M480.383,344.557c0,0,10.576-2.433,13.404-12.013l9.68,1.06l2.82,9.892
				C506.287,343.495,497.51,355.055,480.383,344.557z"/>
			<path fill="#CCCCCC" d="M493.787,332.544c-2.828,9.58-13.404,12.013-13.404,12.013c0.438,0.27,0.869,0.516,1.299,0.756
				c5.889-0.073,14.094-2.072,22.197-10.26l-0.412-1.449L493.787,332.544z"/>
		</g>
		<g>
			<path fill="#B3B3B3" d="M498.771,359.295c0,0,9.225-5.717,8.809-15.697l9.502-2.122l5.863,8.451
				C522.945,349.927,518.371,363.701,498.771,359.295z"/>
			<path fill="#CCCCCC" d="M507.58,343.598c0.416,9.98-8.809,15.697-8.809,15.697c0.502,0.114,0.988,0.208,1.473,0.297
				c5.551-1.972,12.67-6.513,17.697-16.878l-0.859-1.238L507.58,343.598z"/>
		</g>
		<g>
			<path fill="#B3B3B3" d="M520.934,367.307c0,0,6.885-8.389,3.268-17.7l8.309-5.077l8.279,6.105
				C540.789,350.635,540.906,365.148,520.934,367.307z"/>
			<path fill="#CCCCCC" d="M524.201,349.606c3.617,9.312-3.268,17.7-3.268,17.7c0.514-0.054,1.004-0.122,1.49-0.194
				c4.617-3.659,9.889-10.255,11.299-21.688l-1.213-0.895L524.201,349.606z"/>
		</g>
		<g>
			<path fill="#B3B3B3" d="M544.496,367.733c0,0,3.809-10.163-2.623-17.808l6.225-7.488l9.807,3.105
				C557.904,345.543,562.701,359.241,544.496,367.733z"/>
			<path fill="#CCCCCC" d="M541.873,349.926c6.432,7.645,2.623,17.808,2.623,17.808c0.469-0.217,0.91-0.439,1.348-0.665
				c3.189-4.955,6.049-12.898,3.691-24.176l-1.438-0.455L541.873,349.926z"/>
		</g>
		<g>
			<path fill="#B3B3B3" d="M566.934,360.529c0,0,0.324-10.849-8.232-16.008l3.475-9.097l10.283-0.228
				C572.459,335.197,581.422,346.613,566.934,360.529z"/>
			<path fill="#CCCCCC" d="M558.701,344.521c8.557,5.159,8.232,16.008,8.232,16.008c0.375-0.356,0.721-0.71,1.061-1.064
				c1.42-5.721,1.561-14.161-4.312-24.073l-1.506,0.033L558.701,344.521z"/>
		</g>
		<g>
			<path fill="#B3B3B3" d="M585.844,346.466c0,0-3.197-10.372-12.961-12.492l0.352-9.731l9.66-3.536
				C582.895,320.706,595.062,328.617,585.844,346.466z"/>
			<path fill="#CCCCCC" d="M572.883,333.974c9.764,2.12,12.961,12.492,12.961,12.492c0.24-0.459,0.453-0.905,0.66-1.35
				c-0.504-5.873-3.096-13.907-11.855-21.392l-1.414,0.518L572.883,333.974z"/>
		</g>
		<g>
			<path fill="#B3B3B3" d="M599.199,327.05c0,0-6.375-8.784-16.299-7.639l-2.811-9.323l8.002-6.466
				C588.092,303.622,602.162,307.18,599.199,327.05z"/>
			<path fill="#CCCCCC" d="M582.9,319.411c9.924-1.146,16.299,7.639,16.299,7.639c0.08-0.513,0.137-1.003,0.189-1.491
				c-2.373-5.396-7.42-12.162-18.127-16.417l-1.172,0.946L582.9,319.411z"/>
		</g>
		<g>
			<path fill="#B3B3B3" d="M605.57,304.361c0,0-8.869-6.255-17.893-1.967l-5.67-7.916l5.486-8.704
				C587.494,285.775,601.959,284.599,605.57,304.361z"/>
			<path fill="#CCCCCC" d="M587.678,302.395c9.023-4.288,17.893,1.967,17.893,1.967c-0.09-0.512-0.193-0.994-0.303-1.473
				c-3.986-4.341-10.949-9.115-22.457-9.685l-0.803,1.274L587.678,302.395z"/>
		</g>
		<g>
			<path fill="#B3B3B3" d="M604.273,280.831c0,0-10.412-3.057-17.568,3.916l-7.922-5.662l2.381-10.009
				C581.164,269.077,594.475,263.293,604.273,280.831z"/>
			<path fill="#CCCCCC" d="M586.705,284.747c7.156-6.973,17.568-3.916,17.568-3.916c-0.25-0.456-0.504-0.879-0.762-1.297
				c-5.174-2.82-13.305-5.091-24.381-1.914l-0.348,1.465L586.705,284.747z"/>
		</g>
		<g>
			<path fill="#B3B3B3" d="M595.449,258.979c0,0-10.842,0.47-15.363,9.379l-9.326-2.8l-0.977-10.242
				C569.783,255.317,580.512,245.545,595.449,258.979z"/>
			<path fill="#CCCCCC" d="M580.086,268.359c4.521-8.91,15.363-9.379,15.363-9.379c-0.383-0.351-0.76-0.669-1.141-0.981
				c-5.807-0.999-14.234-0.522-23.691,6.061l0.143,1.5L580.086,268.359z"/>
		</g>
		<g>
			<path fill="#B3B3B3" d="M580.043,241.147c0,0-10.111,3.946-11.514,13.838l-9.73,0.361l-4.23-9.378
				C554.568,245.969,561.566,233.256,580.043,241.147z"/>
			<path fill="#CCCCCC" d="M568.529,254.985c1.402-9.892,11.514-13.838,11.514-13.838c-0.477-0.208-0.936-0.387-1.396-0.56
				c-5.818,0.93-13.643,4.102-20.467,13.385l0.619,1.374L568.529,254.985z"/>
		</g>
		<g>
			<path fill="#B3B3B3" d="M559.703,229.246c0,0-8.295,6.999-6.43,16.814l-9.092,3.483l-7.031-7.51
				C537.15,242.034,539.668,227.743,559.703,229.246z"/>
			<path fill="#CCCCCC" d="M553.273,246.061c-1.865-9.815,6.43-16.814,6.43-16.814c-0.518-0.044-1.012-0.065-1.502-0.08
				c-5.207,2.759-11.588,8.288-15.049,19.277l1.029,1.101L553.273,246.061z"/>
		</g>
		<path opacity="0.1" fill="#808080" d="M534,261.598c20.814,0,37.811,16.346,38.852,36.902c0.034-0.662,0.051-1.329,0.051-2
			c0-21.485-17.417-38.902-38.902-38.902c-21.484,0-38.901,17.417-38.901,38.902c0,0.671,0.017,1.338,0.051,2
			C496.189,277.944,513.187,261.598,534,261.598z"/>
		<path opacity="0.1" fill="#CCCCCC" d="M534,331.402c-20.813,0-37.81-16.347-38.851-36.902c-0.034,0.662-0.051,1.329-0.051,2
			c0,21.484,17.417,38.902,38.901,38.902c21.485,0,38.902-17.418,38.902-38.902c0-0.671-0.018-1.338-0.051-2
			C571.811,315.056,554.814,331.402,534,331.402z"/>
		<linearGradient id="SVGID_5_" gradientUnits="userSpaceOnUse" x1="530.5781" y1="259.1758" x2="532.5781" y2="284.8423">
			<stop  offset="0" style="stop-color:#FFFFFF;stop-opacity:0"/>
			<stop  offset="1" style="stop-color:#FFFFFF"/>
		</linearGradient>
		<path opacity="0.2" fill="url(#SVGID_5_)" d="M530.861,284.747l-5.543-26.171c0,0,4.715-1.591,10.354-0.937L534,285.082
			L530.861,284.747z"/>
		
			<linearGradient id="SVGID_6_" gradientUnits="userSpaceOnUse" x1="368.1211" y1="608.1191" x2="370.1211" y2="633.7856" gradientTransform="matrix(0.1395 -0.9902 0.9902 0.1395 -156.9594 574.3812)">
			<stop  offset="0" style="stop-color:#FFFFFF;stop-opacity:0"/>
			<stop  offset="1" style="stop-color:#FFFFFF"/>
		</linearGradient>
		<path opacity="0.2" fill="url(#SVGID_6_)" d="M521.924,297.969l-26.688,1.839c0,0-0.918-4.891,0.516-10.383l26.941,5.483
			L521.924,297.969z"/>
		
			<linearGradient id="SVGID_7_" gradientUnits="userSpaceOnUse" x1="-28.9302" y1="435.4307" x2="-26.9301" y2="461.0981" gradientTransform="matrix(-0.9987 -0.0509 0.0509 -0.9987 484.4481 767.3464)">
			<stop  offset="0" style="stop-color:#FFFFFF;stop-opacity:0"/>
			<stop  offset="1" style="stop-color:#FFFFFF"/>
		</linearGradient>
		<path opacity="0.2" fill="url(#SVGID_7_)" d="M536.538,308.398l4.202,26.42c0,0-4.789,1.349-10.388,0.407l3.067-27.321
			L536.538,308.398z"/>
		
			<linearGradient id="SVGID_8_" gradientUnits="userSpaceOnUse" x1="159.2061" y1="60.7153" x2="161.2061" y2="86.3827" gradientTransform="matrix(-0.0298 0.9996 -0.9996 -0.0298 636.8465 136.8659)">
			<stop  offset="0" style="stop-color:#FFFFFF;stop-opacity:0"/>
			<stop  offset="1" style="stop-color:#FFFFFF"/>
		</linearGradient>
		<path opacity="0.2" fill="url(#SVGID_8_)" d="M545.841,293.713l26.327-4.761c0,0,1.449,4.76,0.625,10.378l-27.379-2.49
			L545.841,293.713z"/>
		<circle fill="#808080" cx="534" cy="296.5" r="13.665"/>
		<circle fill="#333333" cx="534.001" cy="296.5" r="11.419"/>
	</g>
</g>
<g>
	<g>
		<polygon fill="#B3B3B3" points="191.542,366.5 207.968,267.626 224.962,366.5 		"/>
		<path fill="#333333" d="M207.979,271.828L224.25,366.5h-32L207.979,271.828 M207.958,264.478l-1.164,7.005l-15.729,94.646
			l-0.232,1.371h1.416h32h1.424l-0.241-1.377l-16.271-94.66L207.958,264.478L207.958,264.478z"/>
	</g>
	<polygon fill="#CCCCCC" points="207.979,270.828 213.945,365.5 224.25,365.5 	"/>
	<polygon opacity="0.33" fill="#808080" points="206.533,291.676 204.787,365.5 196.77,365.5 	"/>
</g>
<g>
	<g>
		<g>
			<polygon fill="#B3B3B3" points="319.881,358.001 335.596,309.226 351.852,358.001 			"/>
			<path fill="#333333" d="M335.602,310.559l15.674,47.027h-30.824L335.602,310.559 M335.589,307.894l-0.776,2.411l-15.151,47.027
				l-0.35,1.084h1.14h30.824h1.152l-0.364-1.093l-15.674-47.027L335.589,307.894L335.589,307.894z"/>
		</g>
		<polygon fill="#CCCCCC" points="335.602,309.586 341.35,356.613 351.275,356.613 		"/>
		<polygon opacity="0.33" fill="#808080" points="334.209,319.942 332.527,356.613 324.805,356.613 		"/>
	</g>
	<g>
		<g>
			<polygon fill="#B3B3B3" points="351.229,358.001 366.942,309.226 383.198,358.001 			"/>
			<path fill="#333333" d="M366.949,310.559l15.674,47.027h-30.824L366.949,310.559 M366.936,307.894l-0.776,2.411l-15.151,47.027
				l-0.35,1.084h1.141h30.824h1.151l-0.364-1.093l-15.674-47.027L366.936,307.894L366.936,307.894z"/>
		</g>
		<polygon fill="#CCCCCC" points="366.949,309.586 372.696,356.613 382.623,356.613 		"/>
		<polygon opacity="0.33" fill="#808080" points="365.557,319.942 363.875,356.613 356.152,356.613 		"/>
	</g>
	<g>
		<g>
			<polygon fill="#B3B3B3" points="384.664,358.001 400.379,309.226 416.636,358.001 			"/>
			<path fill="#333333" d="M400.386,310.559l15.674,47.027h-30.825L400.386,310.559 M400.372,307.894l-0.776,2.411l-15.151,47.027
				l-0.35,1.084h1.14h30.825h1.151l-0.363-1.093l-15.674-47.027L400.372,307.894L400.372,307.894z"/>
		</g>
		<polygon fill="#CCCCCC" points="400.386,309.586 406.133,356.613 416.06,356.613 		"/>
		<polygon opacity="0.33" fill="#808080" points="398.993,319.942 397.312,356.613 389.589,356.613 		"/>
	</g>
	<g>
		<g>
			<polygon fill="#B3B3B3" points="417.057,358.001 432.771,309.226 449.027,358.001 			"/>
			<path fill="#333333" d="M432.778,310.559l15.673,47.027h-30.824L432.778,310.559 M432.765,307.894l-0.776,2.411l-15.151,47.027
				l-0.35,1.084h1.14h30.824h1.151l-0.364-1.093l-15.672-47.027L432.765,307.894L432.765,307.894z"/>
		</g>
		<polygon fill="#CCCCCC" points="432.778,309.586 438.524,356.613 448.451,356.613 		"/>
		<polygon opacity="0.33" fill="#808080" points="431.385,319.942 429.703,356.613 421.98,356.613 		"/>
	</g>
</g>
<g>
	<g>
		<g>
			<polygon fill="#B3B3B3" points="644.254,347.5 672.009,347.5 657.896,372.4 			"/>
			<path fill="#333333" d="M671.135,347.5l-13.231,23.345l-12.79-23.345H671 M672.883,346.5h-1.748h-26.021h-1.719l0.825,1.728
				l12.79,23.455l0.879,1.658l0.9-1.562l13.231-23.551L672.883,346.5L672.883,346.5z"/>
		</g>
		<polygon fill="#CCCCCC" points="657.903,370.845 662.756,347.5 671.135,347.5 		"/>
		<polygon opacity="0.33" fill="#808080" points="656.729,365.705 655.309,347.5 648.787,347.5 		"/>
	</g>
	<g>
		<g>
			<polygon fill="#B3B3B3" points="668.07,347.5 695.825,347.5 681.712,372.4 			"/>
			<path fill="#333333" d="M694.951,347.5l-13.231,23.345L668.93,347.5H695 M696.699,346.5h-1.748H668.93h-1.719l0.825,1.728
				l12.79,23.455l0.879,1.658l0.9-1.562l13.231-23.551L696.699,346.5L696.699,346.5z"/>
		</g>
		<polygon fill="#CCCCCC" points="681.72,370.845 686.572,347.5 694.951,347.5 		"/>
		<polygon opacity="0.33" fill="#808080" points="680.545,365.705 679.125,347.5 672.605,347.5 		"/>
	</g>
	<g>
		<g>
			<polygon fill="#B3B3B3" points="691.888,347.5 719.644,347.5 705.53,372.4 			"/>
			<path fill="#333333" d="M718.77,347.5l-13.231,23.345L692.747,347.5H719 M720.518,346.5h-1.748h-26.022h-1.72l0.826,1.728
				l12.791,23.455l0.879,1.658l0.9-1.562l13.231-23.551L720.518,346.5L720.518,346.5z"/>
		</g>
		<polygon fill="#CCCCCC" points="705.538,370.845 710.389,347.5 718.77,347.5 		"/>
		<polygon opacity="0.33" fill="#808080" points="704.361,365.705 702.941,347.5 696.422,347.5 		"/>
	</g>
	<g>
		<g>
			<polygon fill="#B3B3B3" points="715.705,347.5 743.461,347.5 729.348,372.4 			"/>
			<path fill="#333333" d="M742.587,347.5l-13.231,23.345L716.564,347.5H743 M744.335,346.5h-1.748h-26.022h-1.719l0.825,1.728
				l12.792,23.455l0.878,1.658l0.9-1.562l13.231-23.551L744.335,346.5L744.335,346.5z"/>
		</g>
		<polygon fill="#CCCCCC" points="729.355,370.845 734.207,347.5 742.587,347.5 		"/>
		<polygon opacity="0.33" fill="#808080" points="728.18,365.705 726.76,347.5 720.238,347.5 		"/>
	</g>
	<g>
		<g>
			<polygon fill="#B3B3B3" points="739.521,347.5 767.277,347.5 753.164,372.4 			"/>
			<path fill="#333333" d="M766.403,347.5l-13.231,23.345L740.381,347.5H766 M768.151,346.5h-1.748h-26.022h-1.719l0.825,1.728
				l12.792,23.455l0.878,1.658l0.9-1.562l13.231-23.551L768.151,346.5L768.151,346.5z"/>
		</g>
		<polygon fill="#CCCCCC" points="753.172,370.845 758.023,347.5 766.403,347.5 		"/>
		<polygon opacity="0.33" fill="#808080" points="751.996,365.705 750.576,347.5 744.057,347.5 		"/>
	</g>
	<g>
		<rect x="641.5" y="307" fill="#B3B3B3" stroke="#333333" stroke-miterlimit="10" width="128" height="41"/>
		<linearGradient id="SVGID_9_" gradientUnits="userSpaceOnUse" x1="705" y1="317.0801" x2="705" y2="338.6601">
			<stop  offset="0" style="stop-color:#603813"/>
			<stop  offset="0.0865" style="stop-color:#714822"/>
			<stop  offset="0.2008" style="stop-color:#80572F"/>
			<stop  offset="0.3347" style="stop-color:#895F37"/>
			<stop  offset="0.5337" style="stop-color:#8C6239"/>
			<stop  offset="0.7214" style="stop-color:#896037"/>
			<stop  offset="0.8324" style="stop-color:#815830"/>
			<stop  offset="0.9231" style="stop-color:#734A23"/>
			<stop  offset="1" style="stop-color:#603813"/>
		</linearGradient>
		<rect x="648.5" y="315" fill="url(#SVGID_9_)" stroke="#333333" stroke-miterlimit="10" width="113" height="26"/>
		<g opacity="0.5">
			<g>
				<path fill="#42210B" d="M648.87,321.677c10.108-0.115,19.835-1.742,29.488,2.115c2.826,1.129,5.053,1.055,7.944,0.205
					c2.577-0.757,16.123-3.008,16.898,1.088c0.309,1.626,2.531,2.904,4.093,2.689c1.521-0.209,2.662-0.621,4.069-1.311
					c3.725-1.826,6.479-2.528,10.604-2.497c12.274,0.093,24.559,0.064,36.839,0.085c0.852,0.001,2.109-1.29,0.744-1.292
					c-11.697-0.02-23.476,0.32-35.162-0.042c-3.913-0.121-7.812-0.273-11.422,1.412c-2.109,0.984-6.99,4.415-7.877-0.267
					c-0.226-1.196-1.153-1.57-2.153-2.043c-2.68-1.269-6.805-0.169-9.571-0.105c-1.994,0.047-3.868,0.242-5.813,0.657
					c-3.793,0.808-5.771,1.09-9.294-0.317c-9.156-3.658-19.077-1.778-28.643-1.669C648.767,320.395,647.507,321.693,648.87,321.677
					L648.87,321.677z"/>
			</g>
		</g>
		<g opacity="0.5">
			<g>
				<path fill="#42210B" d="M761.614,333.585c-8.711-0.058-17.424-0.863-26.13-1.151c-7.66-0.254-15.868-0.807-23.279,1.478
					c-11.334,3.494-22.299-1.594-33.699-0.861c-0.897,0.058-2.502,0.582-3.121,1.24c-0.251,0.267-0.623,0.551-0.748,0.924
					c-1.293,3.833-5.56,1.671-7.717,0.498c-5.053-2.749-12.091-1.153-17.563-1.335c-0.86-0.029-2.112,1.247-0.744,1.292
					c3.291,0.11,6.571-0.073,9.863-0.098c4.204-0.032,6.982,1.893,10.7,3.21c2.691,0.954,5.84,0.708,7.081-2.286
					c1.895-4.567,14.77-1.16,18.38-0.401c4.616,0.972,9.771,0.442,14.38-0.256c3.558-0.539,6.818-1.747,10.438-2.032
					c5.073-0.4,10.203-0.231,15.284-0.08c8.709,0.259,17.418,1.094,26.131,1.151C761.723,334.883,762.98,333.594,761.614,333.585
					L761.614,333.585z"/>
			</g>
		</g>
		
			<ellipse fill="#B3B3B3" stroke="#333333" stroke-width="1.0054" stroke-miterlimit="10" cx="646.604" cy="344.869" rx="1.491" ry="1.525"/>
		
			<ellipse fill="#B3B3B3" stroke="#333333" stroke-width="1.0054" stroke-miterlimit="10" cx="661.514" cy="344.869" rx="1.491" ry="1.525"/>
		
			<ellipse fill="#B3B3B3" stroke="#333333" stroke-width="1.0054" stroke-miterlimit="10" cx="676.425" cy="344.869" rx="1.491" ry="1.525"/>
		
			<ellipse fill="#B3B3B3" stroke="#333333" stroke-width="1.0054" stroke-miterlimit="10" cx="691.335" cy="344.869" rx="1.491" ry="1.525"/>
		
			<ellipse fill="#B3B3B3" stroke="#333333" stroke-width="1.0054" stroke-miterlimit="10" cx="706.245" cy="344.869" rx="1.491" ry="1.525"/>
		
			<ellipse fill="#B3B3B3" stroke="#333333" stroke-width="1.0054" stroke-miterlimit="10" cx="721.156" cy="344.869" rx="1.49" ry="1.525"/>
		
			<ellipse fill="#B3B3B3" stroke="#333333" stroke-width="1.0054" stroke-miterlimit="10" cx="736.067" cy="344.869" rx="1.491" ry="1.525"/>
		
			<ellipse fill="#B3B3B3" stroke="#333333" stroke-width="1.0054" stroke-miterlimit="10" cx="750.977" cy="344.869" rx="1.491" ry="1.525"/>
		
			<ellipse fill="#B3B3B3" stroke="#333333" stroke-width="1.0054" stroke-miterlimit="10" cx="765.429" cy="344.869" rx="1.491" ry="1.525"/>
		
			<ellipse fill="#B3B3B3" stroke="#333333" stroke-width="1.0054" stroke-miterlimit="10" cx="646.604" cy="311.078" rx="1.491" ry="1.525"/>
		
			<ellipse fill="#B3B3B3" stroke="#333333" stroke-width="1.0054" stroke-miterlimit="10" cx="661.514" cy="311.078" rx="1.491" ry="1.525"/>
		
			<ellipse fill="#B3B3B3" stroke="#333333" stroke-width="1.0054" stroke-miterlimit="10" cx="676.425" cy="311.078" rx="1.491" ry="1.525"/>
		
			<ellipse fill="#B3B3B3" stroke="#333333" stroke-width="1.0054" stroke-miterlimit="10" cx="691.335" cy="311.078" rx="1.491" ry="1.525"/>
		
			<ellipse fill="#B3B3B3" stroke="#333333" stroke-width="1.0054" stroke-miterlimit="10" cx="706.245" cy="311.078" rx="1.491" ry="1.525"/>
		
			<ellipse fill="#B3B3B3" stroke="#333333" stroke-width="1.0054" stroke-miterlimit="10" cx="721.156" cy="311.078" rx="1.49" ry="1.525"/>
		
			<ellipse fill="#B3B3B3" stroke="#333333" stroke-width="1.0054" stroke-miterlimit="10" cx="736.067" cy="311.078" rx="1.491" ry="1.525"/>
		
			<ellipse fill="#B3B3B3" stroke="#333333" stroke-width="1.0054" stroke-miterlimit="10" cx="750.977" cy="311.078" rx="1.491" ry="1.525"/>
		
			<ellipse fill="#B3B3B3" stroke="#333333" stroke-width="1.0054" stroke-miterlimit="10" cx="765.429" cy="311.078" rx="1.491" ry="1.525"/>
	</g>
</g>
<g>
	<path fill="#B3B3B3" stroke="#333333" stroke-miterlimit="10" d="M705.609,258c-5.555,0-10.058,7.081-10.058,15.815
		s4.503,15.815,10.058,15.815s10.058-7.081,10.058-15.815S711.164,258,705.609,258z M705.609,284.846
		c-3.874,0-7.015-4.938-7.015-11.031s3.141-11.031,7.015-11.031s7.015,4.938,7.015,11.031S709.483,284.846,705.609,284.846z"/>
	<path fill="#B3B3B3" stroke="#333333" stroke-miterlimit="10" d="M705.609,279.5c-5.555,0-10.058,7.081-10.058,15.815
		s4.503,15.815,10.058,15.815s10.058-7.081,10.058-15.815S711.164,279.5,705.609,279.5z M705.609,306.346
		c-3.874,0-7.015-4.938-7.015-11.031s3.141-11.031,7.015-11.031s7.015,4.938,7.015,11.031S709.483,306.346,705.609,306.346z"/>
	<path fill="#B3B3B3" stroke="#333333" stroke-miterlimit="10" d="M705.609,258c-5.555,0-10.058,7.081-10.058,15.815
		s4.503,15.815,10.058,15.815s10.058-7.081,10.058-15.815S711.164,258,705.609,258z M705.609,284.846
		c-3.874,0-7.015-4.938-7.015-11.031s3.141-11.031,7.015-11.031s7.015,4.938,7.015,11.031S709.483,284.846,705.609,284.846z"/>
	<path fill="#B3B3B3" stroke="#333333" stroke-miterlimit="10" d="M705.609,236.783c-5.555,0-10.058,7.081-10.058,15.815
		s4.503,15.815,10.058,15.815s10.058-7.081,10.058-15.815S711.164,236.783,705.609,236.783z M705.609,263.629
		c-3.874,0-7.015-4.938-7.015-11.031s3.141-11.031,7.015-11.031s7.015,4.938,7.015,11.031S709.483,263.629,705.609,263.629z"/>
	<path fill="#B3B3B3" stroke="#333333" stroke-miterlimit="10" d="M701.681,280.753c0,0-3.017,2.468-3.995,4.837
		s1.998,3.823,1.998,3.823s1.868-5.345,5.926-5.129C705.609,284.284,704.36,280.339,701.681,280.753z"/>
	<path fill="#B3B3B3" stroke="#333333" stroke-miterlimit="10" d="M701.681,259.753c0,0-3.017,2.468-3.995,4.837
		s1.998,3.823,1.998,3.823s1.868-5.345,5.926-5.129C705.609,263.284,704.36,259.339,701.681,259.753z"/>
	<path fill="#B3B3B3" stroke="#333333" stroke-miterlimit="10" d="M705.609,216c-5.555,0-10.058,7.081-10.058,15.815
		s4.503,15.815,10.058,15.815s10.058-7.081,10.058-15.815S711.164,216,705.609,216z M705.609,242.846
		c-3.874,0-7.015-4.938-7.015-11.031s3.141-11.031,7.015-11.031s7.015,4.938,7.015,11.031S709.483,242.846,705.609,242.846z"/>
	<path fill="#B3B3B3" stroke="#333333" stroke-miterlimit="10" d="M705.609,216c-5.555,0-10.058,7.081-10.058,15.815
		s4.503,15.815,10.058,15.815s10.058-7.081,10.058-15.815S711.164,216,705.609,216z M705.609,242.846
		c-3.874,0-7.015-4.938-7.015-11.031s3.141-11.031,7.015-11.031s7.015,4.938,7.015,11.031S709.483,242.846,705.609,242.846z"/>
	<path fill="#B3B3B3" stroke="#333333" stroke-miterlimit="10" d="M705.609,194.783c-5.555,0-10.058,7.081-10.058,15.815
		s4.503,15.815,10.058,15.815s10.058-7.081,10.058-15.815S711.164,194.783,705.609,194.783z M705.609,221.629
		c-3.874,0-7.015-4.938-7.015-11.031s3.141-11.031,7.015-11.031s7.015,4.938,7.015,11.031S709.483,221.629,705.609,221.629z"/>
	<path fill="#B3B3B3" stroke="#333333" stroke-miterlimit="10" d="M701.681,238.753c0,0-3.017,2.468-3.995,4.837
		s1.998,3.823,1.998,3.823s1.868-5.345,5.926-5.129C705.609,242.284,704.36,238.339,701.681,238.753z"/>
	<path fill="#B3B3B3" stroke="#333333" stroke-miterlimit="10" d="M701.681,217.753c0,0-3.017,2.468-3.995,4.837
		s1.998,3.823,1.998,3.823s1.868-5.345,5.926-5.129C705.609,221.284,704.36,217.339,701.681,217.753z"/>
	<path fill="#B3B3B3" stroke="#333333" stroke-miterlimit="10" d="M705.609,173c-5.555,0-10.058,7.081-10.058,15.815
		s4.503,15.815,10.058,15.815s10.058-7.081,10.058-15.815S711.164,173,705.609,173z M705.609,199.846
		c-3.874,0-7.015-4.938-7.015-11.031s3.141-11.031,7.015-11.031s7.015,4.938,7.015,11.031S709.483,199.846,705.609,199.846z"/>
	<path fill="#B3B3B3" stroke="#333333" stroke-miterlimit="10" d="M705.609,173c-5.555,0-10.058,7.081-10.058,15.815
		s4.503,15.815,10.058,15.815s10.058-7.081,10.058-15.815S711.164,173,705.609,173z M705.609,199.846
		c-3.874,0-7.015-4.938-7.015-11.031s3.141-11.031,7.015-11.031s7.015,4.938,7.015,11.031S709.483,199.846,705.609,199.846z"/>
	<path fill="#B3B3B3" stroke="#333333" stroke-miterlimit="10" d="M705.609,151.783c-5.555,0-10.058,7.081-10.058,15.815
		s4.503,15.815,10.058,15.815s10.058-7.081,10.058-15.815S711.164,151.783,705.609,151.783z M705.609,178.629
		c-3.874,0-7.015-4.938-7.015-11.031s3.141-11.031,7.015-11.031s7.015,4.938,7.015,11.031S709.483,178.629,705.609,178.629z"/>
	<path fill="#B3B3B3" stroke="#333333" stroke-miterlimit="10" d="M701.681,195.753c0,0-3.017,2.468-3.995,4.837
		s1.998,3.823,1.998,3.823s1.868-5.345,5.926-5.129C705.609,199.284,704.36,195.339,701.681,195.753z"/>
	<path fill="#B3B3B3" stroke="#333333" stroke-miterlimit="10" d="M701.681,174.753c0,0-3.017,2.468-3.995,4.837
		s1.998,3.823,1.998,3.823s1.868-5.345,5.926-5.129C705.609,178.284,704.36,174.339,701.681,174.753z"/>
	<path fill="#B3B3B3" stroke="#333333" stroke-miterlimit="10" d="M705.609,130c-5.555,0-10.058,7.081-10.058,15.815
		s4.503,15.815,10.058,15.815s10.058-7.081,10.058-15.815S711.164,130,705.609,130z M705.609,156.846
		c-3.874,0-7.015-4.938-7.015-11.031s3.141-11.031,7.015-11.031s7.015,4.938,7.015,11.031S709.483,156.846,705.609,156.846z"/>
	<path fill="#B3B3B3" stroke="#333333" stroke-miterlimit="10" d="M705.609,130c-5.555,0-10.058,7.081-10.058,15.815
		s4.503,15.815,10.058,15.815s10.058-7.081,10.058-15.815S711.164,130,705.609,130z M705.609,156.846
		c-3.874,0-7.015-4.938-7.015-11.031s3.141-11.031,7.015-11.031s7.015,4.938,7.015,11.031S709.483,156.846,705.609,156.846z"/>
	<path fill="#B3B3B3" stroke="#333333" stroke-miterlimit="10" d="M705.609,108.783c-5.555,0-10.058,7.081-10.058,15.815
		s4.503,15.815,10.058,15.815s10.058-7.081,10.058-15.815S711.164,108.783,705.609,108.783z M705.609,135.629
		c-3.874,0-7.015-4.938-7.015-11.031s3.141-11.031,7.015-11.031s7.015,4.938,7.015,11.031S709.483,135.629,705.609,135.629z"/>
	<path fill="#B3B3B3" stroke="#333333" stroke-miterlimit="10" d="M701.681,152.753c0,0-3.017,2.468-3.995,4.837
		s1.998,3.823,1.998,3.823s1.868-5.345,5.926-5.129C705.609,156.284,704.36,152.339,701.681,152.753z"/>
	<path fill="#B3B3B3" stroke="#333333" stroke-miterlimit="10" d="M701.681,131.753c0,0-3.017,2.468-3.995,4.837
		s1.998,3.823,1.998,3.823s1.868-5.345,5.926-5.129C705.609,135.284,704.36,131.339,701.681,131.753z"/>
	<path fill="#B3B3B3" stroke="#333333" stroke-miterlimit="10" d="M705.609,87c-5.555,0-10.058,7.081-10.058,15.815
		s4.503,15.815,10.058,15.815s10.058-7.081,10.058-15.815S711.164,87,705.609,87z M705.609,113.846
		c-3.874,0-7.015-4.938-7.015-11.031s3.141-11.031,7.015-11.031s7.015,4.938,7.015,11.031S709.483,113.846,705.609,113.846z"/>
	<path fill="#B3B3B3" stroke="#333333" stroke-miterlimit="10" d="M705.609,87c-5.555,0-10.058,7.081-10.058,15.815
		s4.503,15.815,10.058,15.815s10.058-7.081,10.058-15.815S711.164,87,705.609,87z M705.609,113.846
		c-3.874,0-7.015-4.938-7.015-11.031s3.141-11.031,7.015-11.031s7.015,4.938,7.015,11.031S709.483,113.846,705.609,113.846z"/>
	<path fill="#B3B3B3" stroke="#333333" stroke-miterlimit="10" d="M705.609,65.783c-5.555,0-10.058,7.081-10.058,15.815
		s4.503,15.815,10.058,15.815s10.058-7.081,10.058-15.815S711.164,65.783,705.609,65.783z M705.609,92.629
		c-3.874,0-7.015-4.938-7.015-11.031s3.141-11.031,7.015-11.031s7.015,4.938,7.015,11.031S709.483,92.629,705.609,92.629z"/>
	<path fill="#B3B3B3" stroke="#333333" stroke-miterlimit="10" d="M701.681,109.753c0,0-3.017,2.468-3.995,4.837
		s1.998,3.823,1.998,3.823s1.868-5.345,5.926-5.129C705.609,113.284,704.36,109.339,701.681,109.753z"/>
	<path fill="#B3B3B3" stroke="#333333" stroke-miterlimit="10" d="M701.681,88.753c0,0-3.017,2.468-3.995,4.837
		s1.998,3.823,1.998,3.823s1.868-5.345,5.926-5.129C705.609,92.284,704.36,88.339,701.681,88.753z"/>
	<path fill="#B3B3B3" stroke="#333333" stroke-miterlimit="10" d="M705.609,44c-5.555,0-10.058,7.081-10.058,15.815
		s4.503,15.815,10.058,15.815s10.058-7.081,10.058-15.815S711.164,44,705.609,44z M705.609,70.846
		c-3.874,0-7.015-4.938-7.015-11.031s3.141-11.031,7.015-11.031s7.015,4.938,7.015,11.031S709.483,70.846,705.609,70.846z"/>
	<path fill="#B3B3B3" stroke="#333333" stroke-miterlimit="10" d="M705.609,44c-5.555,0-10.058,7.081-10.058,15.815
		s4.503,15.815,10.058,15.815s10.058-7.081,10.058-15.815S711.164,44,705.609,44z M705.609,70.846
		c-3.874,0-7.015-4.938-7.015-11.031s3.141-11.031,7.015-11.031s7.015,4.938,7.015,11.031S709.483,70.846,705.609,70.846z"/>
	<path fill="#B3B3B3" stroke="#333333" stroke-miterlimit="10" d="M705.609,22.783c-5.555,0-10.058,7.081-10.058,15.815
		s4.503,15.815,10.058,15.815s10.058-7.081,10.058-15.815S711.164,22.783,705.609,22.783z M705.609,49.629
		c-3.874,0-7.015-4.938-7.015-11.031s3.141-11.031,7.015-11.031s7.015,4.938,7.015,11.031S709.483,49.629,705.609,49.629z"/>
	<path fill="#B3B3B3" stroke="#333333" stroke-miterlimit="10" d="M701.681,66.753c0,0-3.017,2.468-3.995,4.837
		s1.998,3.823,1.998,3.823s1.868-5.345,5.926-5.129C705.609,70.284,704.36,66.339,701.681,66.753z"/>
	<path fill="#B3B3B3" stroke="#333333" stroke-miterlimit="10" d="M701.681,45.753c0,0-3.017,2.468-3.995,4.837
		s1.998,3.823,1.998,3.823s1.868-5.345,5.926-5.129C705.609,49.284,704.36,45.339,701.681,45.753z"/>
	<path fill="#B3B3B3" stroke="#333333" stroke-miterlimit="10" d="M705.609,1c-5.555,0-10.058,7.081-10.058,15.815
		s4.503,15.815,10.058,15.815s10.058-7.081,10.058-15.815S711.164,1,705.609,1z M705.609,27.846c-3.874,0-7.015-4.938-7.015-11.031
		s3.141-11.031,7.015-11.031s7.015,4.938,7.015,11.031S709.483,27.846,705.609,27.846z"/>
	<path fill="#B3B3B3" stroke="#333333" stroke-miterlimit="10" d="M705.609,1c-5.555,0-10.058,7.081-10.058,15.815
		s4.503,15.815,10.058,15.815s10.058-7.081,10.058-15.815S711.164,1,705.609,1z M705.609,27.846c-3.874,0-7.015-4.938-7.015-11.031
		s3.141-11.031,7.015-11.031s7.015,4.938,7.015,11.031S709.483,27.846,705.609,27.846z"/>
	<path fill="#B3B3B3" stroke="#333333" stroke-miterlimit="10" d="M705.609-20.217c-5.555,0-10.058,7.081-10.058,15.815
		s4.503,15.815,10.058,15.815s10.058-7.081,10.058-15.815S711.164-20.217,705.609-20.217z M705.609,6.629
		c-3.874,0-7.015-4.938-7.015-11.031s3.141-11.031,7.015-11.031s7.015,4.938,7.015,11.031S709.483,6.629,705.609,6.629z"/>
	<path fill="#B3B3B3" stroke="#333333" stroke-miterlimit="10" d="M701.681,23.753c0,0-3.017,2.468-3.995,4.837
		s1.998,3.823,1.998,3.823s1.868-5.345,5.926-5.129C705.609,27.284,704.36,23.339,701.681,23.753z"/>
	<path fill="#B3B3B3" stroke="#333333" stroke-miterlimit="10" d="M701.681,2.753c0,0-3.017,2.468-3.995,4.837
		s1.998,3.823,1.998,3.823s1.868-5.345,5.926-5.129C705.609,6.284,704.36,2.339,701.681,2.753z"/>
</g>
<g>
	<path fill="#A67C52" stroke="#754C24" stroke-miterlimit="10" d="M857.609,256c-5.555,0-10.058,7.081-10.058,15.815
		s4.503,15.815,10.058,15.815s10.058-7.081,10.058-15.815S863.164,256,857.609,256z M857.609,282.846
		c-3.874,0-7.015-4.938-7.015-11.031s3.141-11.031,7.015-11.031s7.015,4.938,7.015,11.031S861.483,282.846,857.609,282.846z"/>
	<path fill="#A67C52" stroke="#754C24" stroke-miterlimit="10" d="M857.609,277.5c-5.555,0-10.058,7.081-10.058,15.815
		s4.503,15.815,10.058,15.815s10.058-7.081,10.058-15.815S863.164,277.5,857.609,277.5z M857.609,304.346
		c-3.874,0-7.015-4.938-7.015-11.031s3.141-11.031,7.015-11.031s7.015,4.938,7.015,11.031S861.483,304.346,857.609,304.346z"/>
	<path fill="#A67C52" stroke="#754C24" stroke-miterlimit="10" d="M857.609,256c-5.555,0-10.058,7.081-10.058,15.815
		s4.503,15.815,10.058,15.815s10.058-7.081,10.058-15.815S863.164,256,857.609,256z M857.609,282.846
		c-3.874,0-7.015-4.938-7.015-11.031s3.141-11.031,7.015-11.031s7.015,4.938,7.015,11.031S861.483,282.846,857.609,282.846z"/>
	<path fill="#A67C52" stroke="#754C24" stroke-miterlimit="10" d="M857.609,234.783c-5.555,0-10.058,7.081-10.058,15.815
		s4.503,15.815,10.058,15.815s10.058-7.081,10.058-15.815S863.164,234.783,857.609,234.783z M857.609,261.629
		c-3.874,0-7.015-4.938-7.015-11.031s3.141-11.031,7.015-11.031s7.015,4.938,7.015,11.031S861.483,261.629,857.609,261.629z"/>
	<path fill="#A67C52" stroke="#754C24" stroke-miterlimit="10" d="M853.681,278.753c0,0-3.017,2.468-3.995,4.837
		s1.998,3.823,1.998,3.823s1.868-5.345,5.926-5.129C857.609,282.284,856.36,278.339,853.681,278.753z"/>
	<path fill="#A67C52" stroke="#754C24" stroke-miterlimit="10" d="M853.681,257.753c0,0-3.017,2.468-3.995,4.837
		s1.998,3.823,1.998,3.823s1.868-5.345,5.926-5.129C857.609,261.284,856.36,257.339,853.681,257.753z"/>
	<path fill="#A67C52" stroke="#754C24" stroke-miterlimit="10" d="M857.609,214c-5.555,0-10.058,7.081-10.058,15.815
		s4.503,15.815,10.058,15.815s10.058-7.081,10.058-15.815S863.164,214,857.609,214z M857.609,240.846
		c-3.874,0-7.015-4.938-7.015-11.031s3.141-11.031,7.015-11.031s7.015,4.938,7.015,11.031S861.483,240.846,857.609,240.846z"/>
	<path fill="#A67C52" stroke="#754C24" stroke-miterlimit="10" d="M857.609,214c-5.555,0-10.058,7.081-10.058,15.815
		s4.503,15.815,10.058,15.815s10.058-7.081,10.058-15.815S863.164,214,857.609,214z M857.609,240.846
		c-3.874,0-7.015-4.938-7.015-11.031s3.141-11.031,7.015-11.031s7.015,4.938,7.015,11.031S861.483,240.846,857.609,240.846z"/>
	<path fill="#A67C52" stroke="#754C24" stroke-miterlimit="10" d="M857.609,192.783c-5.555,0-10.058,7.081-10.058,15.815
		s4.503,15.815,10.058,15.815s10.058-7.081,10.058-15.815S863.164,192.783,857.609,192.783z M857.609,219.629
		c-3.874,0-7.015-4.938-7.015-11.031s3.141-11.031,7.015-11.031s7.015,4.938,7.015,11.031S861.483,219.629,857.609,219.629z"/>
	<path fill="#A67C52" stroke="#754C24" stroke-miterlimit="10" d="M853.681,236.753c0,0-3.017,2.468-3.995,4.837
		s1.998,3.823,1.998,3.823s1.868-5.345,5.926-5.129C857.609,240.284,856.36,236.339,853.681,236.753z"/>
	<path fill="#A67C52" stroke="#754C24" stroke-miterlimit="10" d="M853.681,215.753c0,0-3.017,2.468-3.995,4.837
		s1.998,3.823,1.998,3.823s1.868-5.345,5.926-5.129C857.609,219.284,856.36,215.339,853.681,215.753z"/>
	<path fill="#A67C52" stroke="#754C24" stroke-miterlimit="10" d="M857.609,171c-5.555,0-10.058,7.081-10.058,15.815
		s4.503,15.815,10.058,15.815s10.058-7.081,10.058-15.815S863.164,171,857.609,171z M857.609,197.846
		c-3.874,0-7.015-4.938-7.015-11.031s3.141-11.031,7.015-11.031s7.015,4.938,7.015,11.031S861.483,197.846,857.609,197.846z"/>
	<path fill="#A67C52" stroke="#754C24" stroke-miterlimit="10" d="M857.609,171c-5.555,0-10.058,7.081-10.058,15.815
		s4.503,15.815,10.058,15.815s10.058-7.081,10.058-15.815S863.164,171,857.609,171z M857.609,197.846
		c-3.874,0-7.015-4.938-7.015-11.031s3.141-11.031,7.015-11.031s7.015,4.938,7.015,11.031S861.483,197.846,857.609,197.846z"/>
	<path fill="#A67C52" stroke="#754C24" stroke-miterlimit="10" d="M857.609,149.783c-5.555,0-10.058,7.081-10.058,15.815
		s4.503,15.815,10.058,15.815s10.058-7.081,10.058-15.815S863.164,149.783,857.609,149.783z M857.609,176.629
		c-3.874,0-7.015-4.938-7.015-11.031s3.141-11.031,7.015-11.031s7.015,4.938,7.015,11.031S861.483,176.629,857.609,176.629z"/>
	<path fill="#A67C52" stroke="#754C24" stroke-miterlimit="10" d="M853.681,193.753c0,0-3.017,2.468-3.995,4.837
		s1.998,3.823,1.998,3.823s1.868-5.345,5.926-5.129C857.609,197.284,856.36,193.339,853.681,193.753z"/>
	<path fill="#A67C52" stroke="#754C24" stroke-miterlimit="10" d="M853.681,172.753c0,0-3.017,2.468-3.995,4.837
		s1.998,3.823,1.998,3.823s1.868-5.345,5.926-5.129C857.609,176.284,856.36,172.339,853.681,172.753z"/>
	<path fill="#A67C52" stroke="#754C24" stroke-miterlimit="10" d="M857.609,128c-5.555,0-10.058,7.081-10.058,15.815
		s4.503,15.815,10.058,15.815s10.058-7.081,10.058-15.815S863.164,128,857.609,128z M857.609,154.846
		c-3.874,0-7.015-4.938-7.015-11.031s3.141-11.031,7.015-11.031s7.015,4.938,7.015,11.031S861.483,154.846,857.609,154.846z"/>
	<path fill="#A67C52" stroke="#754C24" stroke-miterlimit="10" d="M857.609,128c-5.555,0-10.058,7.081-10.058,15.815
		s4.503,15.815,10.058,15.815s10.058-7.081,10.058-15.815S863.164,128,857.609,128z M857.609,154.846
		c-3.874,0-7.015-4.938-7.015-11.031s3.141-11.031,7.015-11.031s7.015,4.938,7.015,11.031S861.483,154.846,857.609,154.846z"/>
	<path fill="#A67C52" stroke="#754C24" stroke-miterlimit="10" d="M857.609,106.783c-5.555,0-10.058,7.081-10.058,15.815
		s4.503,15.815,10.058,15.815s10.058-7.081,10.058-15.815S863.164,106.783,857.609,106.783z M857.609,133.629
		c-3.874,0-7.015-4.938-7.015-11.031s3.141-11.031,7.015-11.031s7.015,4.938,7.015,11.031S861.483,133.629,857.609,133.629z"/>
	<path fill="#A67C52" stroke="#754C24" stroke-miterlimit="10" d="M853.681,150.753c0,0-3.017,2.468-3.995,4.837
		s1.998,3.823,1.998,3.823s1.868-5.345,5.926-5.129C857.609,154.284,856.36,150.339,853.681,150.753z"/>
	<path fill="#A67C52" stroke="#754C24" stroke-miterlimit="10" d="M853.681,129.753c0,0-3.017,2.468-3.995,4.837
		s1.998,3.823,1.998,3.823s1.868-5.345,5.926-5.129C857.609,133.284,856.36,129.339,853.681,129.753z"/>
	<path fill="#A67C52" stroke="#754C24" stroke-miterlimit="10" d="M857.609,85c-5.555,0-10.058,7.081-10.058,15.815
		s4.503,15.815,10.058,15.815s10.058-7.081,10.058-15.815S863.164,85,857.609,85z M857.609,111.846
		c-3.874,0-7.015-4.938-7.015-11.031s3.141-11.031,7.015-11.031s7.015,4.938,7.015,11.031S861.483,111.846,857.609,111.846z"/>
	<path fill="#A67C52" stroke="#754C24" stroke-miterlimit="10" d="M857.609,85c-5.555,0-10.058,7.081-10.058,15.815
		s4.503,15.815,10.058,15.815s10.058-7.081,10.058-15.815S863.164,85,857.609,85z M857.609,111.846
		c-3.874,0-7.015-4.938-7.015-11.031s3.141-11.031,7.015-11.031s7.015,4.938,7.015,11.031S861.483,111.846,857.609,111.846z"/>
	<path fill="#A67C52" stroke="#754C24" stroke-miterlimit="10" d="M857.609,63.783c-5.555,0-10.058,7.081-10.058,15.815
		s4.503,15.815,10.058,15.815s10.058-7.081,10.058-15.815S863.164,63.783,857.609,63.783z M857.609,90.629
		c-3.874,0-7.015-4.938-7.015-11.031s3.141-11.031,7.015-11.031s7.015,4.938,7.015,11.031S861.483,90.629,857.609,90.629z"/>
	<path fill="#A67C52" stroke="#754C24" stroke-miterlimit="10" d="M853.681,107.753c0,0-3.017,2.468-3.995,4.837
		s1.998,3.823,1.998,3.823s1.868-5.345,5.926-5.129C857.609,111.284,856.36,107.339,853.681,107.753z"/>
	<path fill="#A67C52" stroke="#754C24" stroke-miterlimit="10" d="M853.681,86.753c0,0-3.017,2.468-3.995,4.837
		s1.998,3.823,1.998,3.823s1.868-5.345,5.926-5.129C857.609,90.284,856.36,86.339,853.681,86.753z"/>
	<path fill="#A67C52" stroke="#754C24" stroke-miterlimit="10" d="M857.609,42c-5.555,0-10.058,7.081-10.058,15.815
		s4.503,15.815,10.058,15.815s10.058-7.081,10.058-15.815S863.164,42,857.609,42z M857.609,68.846
		c-3.874,0-7.015-4.938-7.015-11.031s3.141-11.031,7.015-11.031s7.015,4.938,7.015,11.031S861.483,68.846,857.609,68.846z"/>
	<path fill="#A67C52" stroke="#754C24" stroke-miterlimit="10" d="M857.609,42c-5.555,0-10.058,7.081-10.058,15.815
		s4.503,15.815,10.058,15.815s10.058-7.081,10.058-15.815S863.164,42,857.609,42z M857.609,68.846
		c-3.874,0-7.015-4.938-7.015-11.031s3.141-11.031,7.015-11.031s7.015,4.938,7.015,11.031S861.483,68.846,857.609,68.846z"/>
	<path fill="#A67C52" stroke="#754C24" stroke-miterlimit="10" d="M857.609,20.783c-5.555,0-10.058,7.081-10.058,15.815
		s4.503,15.815,10.058,15.815s10.058-7.081,10.058-15.815S863.164,20.783,857.609,20.783z M857.609,47.629
		c-3.874,0-7.015-4.938-7.015-11.031s3.141-11.031,7.015-11.031s7.015,4.938,7.015,11.031S861.483,47.629,857.609,47.629z"/>
	<path fill="#A67C52" stroke="#754C24" stroke-miterlimit="10" d="M853.681,64.753c0,0-3.017,2.468-3.995,4.837
		s1.998,3.823,1.998,3.823s1.868-5.345,5.926-5.129C857.609,68.284,856.36,64.339,853.681,64.753z"/>
	<path fill="#A67C52" stroke="#754C24" stroke-miterlimit="10" d="M853.681,43.753c0,0-3.017,2.468-3.995,4.837
		s1.998,3.823,1.998,3.823s1.868-5.345,5.926-5.129C857.609,47.284,856.36,43.339,853.681,43.753z"/>
	<path fill="#A67C52" stroke="#754C24" stroke-miterlimit="10" d="M857.609-1c-5.555,0-10.058,7.081-10.058,15.815
		s4.503,15.815,10.058,15.815s10.058-7.081,10.058-15.815S863.164-1,857.609-1z M857.609,25.846c-3.874,0-7.015-4.938-7.015-11.031
		s3.141-11.031,7.015-11.031s7.015,4.938,7.015,11.031S861.483,25.846,857.609,25.846z"/>
	<path fill="#A67C52" stroke="#754C24" stroke-miterlimit="10" d="M857.609-1c-5.555,0-10.058,7.081-10.058,15.815
		s4.503,15.815,10.058,15.815s10.058-7.081,10.058-15.815S863.164-1,857.609-1z M857.609,25.846c-3.874,0-7.015-4.938-7.015-11.031
		s3.141-11.031,7.015-11.031s7.015,4.938,7.015,11.031S861.483,25.846,857.609,25.846z"/>
	<path fill="#A67C52" stroke="#754C24" stroke-miterlimit="10" d="M857.609-22.217c-5.555,0-10.058,7.081-10.058,15.815
		s4.503,15.815,10.058,15.815s10.058-7.081,10.058-15.815S863.164-22.217,857.609-22.217z M857.609,4.629
		c-3.874,0-7.015-4.938-7.015-11.031s3.141-11.031,7.015-11.031s7.015,4.938,7.015,11.031S861.483,4.629,857.609,4.629z"/>
	<path fill="#A67C52" stroke="#754C24" stroke-miterlimit="10" d="M853.681,21.753c0,0-3.017,2.468-3.995,4.837
		s1.998,3.823,1.998,3.823s1.868-5.345,5.926-5.129C857.609,25.284,856.36,21.339,853.681,21.753z"/>
	<path fill="#A67C52" stroke="#754C24" stroke-miterlimit="10" d="M853.681,0.753c0,0-3.017,2.468-3.995,4.837
		s1.998,3.823,1.998,3.823s1.868-5.345,5.926-5.129C857.609,4.284,856.36,0.339,853.681,0.753z"/>
</g>
<g>
	<circle fill="#B3B3B3" stroke="#4D4D4D" stroke-width="2.1466" stroke-miterlimit="10" cx="98.5" cy="318.621" r="52.053"/>
	<ellipse opacity="0.6" fill="#CCCCCC" cx="90.869" cy="299.659" rx="34.95" ry="25.769"/>
	<path fill="#B3B3B3" stroke="#4D4D4D" stroke-width="2.1466" stroke-miterlimit="10" d="M93.134,273.885l8.049-19.258l6.976,19.258
		C108.159,273.885,99.037,284.019,93.134,273.885z"/>
	<path fill="#B3B3B3" stroke="#4D4D4D" stroke-width="1.9621" stroke-miterlimit="10" d="M83.432,297.357l4.623-17.386
		l10.091,14.341C98.146,294.312,90.929,304.453,83.432,297.357z"/>
	<path fill="#B3B3B3" stroke="#4D4D4D" stroke-width="1.9621" stroke-miterlimit="10" d="M80.688,332.007l-17.759,2.875
		l8.973-15.067C71.902,319.814,84.104,322.265,80.688,332.007z"/>
	<path fill="#B3B3B3" stroke="#4D4D4D" stroke-width="1.9621" stroke-miterlimit="10" d="M112.92,334.638l-0.201,17.988
		l-13.312-11.412C99.408,341.214,103.905,329.607,112.92,334.638z"/>
	<path fill="#999999" d="M98.338,357.247c-25.952,0-47.35-19.238-50.451-44.08c-0.255,2.039-0.401,4.114-0.401,6.223
		c0,27.78,22.768,50.303,50.853,50.303c28.086,0,50.854-22.522,50.854-50.303c0-2.109-0.146-4.184-0.402-6.223
		C145.69,338.009,124.292,357.247,98.338,357.247z"/>
	<path fill="#B3B3B3" stroke="#4D4D4D" stroke-width="1.9621" stroke-miterlimit="10" d="M116.2,302.761l17.982,0.51l-11.639,13.115
		C122.542,316.386,111.016,311.689,116.2,302.761z"/>
	<path fill="#B3B3B3" stroke="#4D4D4D" stroke-width="2.1466" stroke-miterlimit="10" d="M143.222,313.167l19.273,8.012
		l-19.243,7.014C143.252,328.193,133.101,319.09,143.222,313.167z"/>
	<path fill="#B3B3B3" stroke="#4D4D4D" stroke-width="2.1466" stroke-miterlimit="10" d="M104.042,363.337l-7.974,19.29
		l-7.052-19.23C89.017,363.396,98.1,353.225,104.042,363.337z"/>
	<path fill="#B3B3B3" stroke="#4D4D4D" stroke-width="2.1466" stroke-miterlimit="10" d="M53.799,324.253l-19.304-7.936
		l19.216-7.092C53.711,309.226,63.898,318.289,53.799,324.253z"/>
	<path fill="#B3B3B3" stroke="#4D4D4D" stroke-width="2.1466" stroke-miterlimit="10" d="M64.095,289.53l-7.228-19.581l18.227,9.343
		C75.094,279.292,75.32,292.927,64.095,289.53z"/>
	<path fill="#B3B3B3" stroke="#4D4D4D" stroke-width="2.1466" stroke-miterlimit="10" d="M126.23,283.11l19.285-7.985l-8.626,18.579
		C136.889,293.704,123.274,294.458,126.23,283.11z"/>
	<path fill="#B3B3B3" stroke="#4D4D4D" stroke-width="2.1466" stroke-miterlimit="10" d="M135.061,344.955l8.727,18.961l-18.898-7.9
		C124.889,356.016,123.606,342.439,135.061,344.955z"/>
	<path fill="#B3B3B3" stroke="#4D4D4D" stroke-width="2.1466" stroke-miterlimit="10" d="M73.611,356.182l-18.607,9.455l7.16-19.192
		C62.164,346.444,75.678,344.636,73.611,356.182z"/>
	<path fill="#CCCCCC" d="M60.4,273.891l5.581,14.01c0,0,2.468,1.073,3.363,0C70.238,286.827,60.4,273.891,60.4,273.891z"/>
	<path fill="#CCCCCC" d="M39.83,316.386l13.952,5.504c0,0,2.844-2.422,2.138-3.269C55.213,317.775,39.83,316.386,39.83,316.386z"/>
	<polygon fill="#CCCCCC" points="65.981,332.623 73.188,321.89 75.784,323.5 	"/>
	<path fill="#CCCCCC" d="M64.693,348.5h2.146l-8.575,13.774C58.265,362.274,62.546,349.5,64.693,348.5z"/>
	<polygon fill="#CCCCCC" points="91.703,363.916 93.134,362.319 96.53,377.703 	"/>
	<polygon fill="#CCCCCC" points="101.542,340.674 104.042,338.169 111.201,348.544 	"/>
	<path fill="#CCCCCC" d="M117.282,304.5h12.879l-13.773,2.505C116.388,307.005,115.655,306.5,117.282,304.5z"/>
	<path fill="#CCCCCC" d="M128.015,284.419l13.953-6.03l-13.953,9.988C128.015,288.378,127.977,286.484,128.015,284.419z"/>
	<polygon fill="#CCCCCC" points="95.46,273.053 100.647,259.636 96.53,274.229 	"/>
	<polygon fill="#CCCCCC" points="89.017,284.419 85.264,296.487 87.141,297.382 	"/>
	<polygon fill="#CCCCCC" points="143.787,315.271 157.172,320.681 141.967,317.976 	"/>
	<path fill="#CCCCCC" d="M134.182,347.113l5.998,12.881l-8.944-12.881C131.235,347.113,133.664,346,134.182,347.113z"/>
</g>
<g>
	<g>
		<g>
			<polygon fill="#C69C6D" points="266.741,365.5 282.984,267.527 299.787,365.5 			"/>
			<path fill="#333333" d="M282.994,270.692l16.089,93.808h-31.642L282.994,270.692 M282.975,263.857l-1.152,6.949l-15.553,93.56
				l-0.229,1.134h1.401h31.642h1.409l-0.238-1.141l-16.089-93.683L282.975,263.857L282.975,263.857z"/>
		</g>
		<polygon fill="#A67C52" points="282.994,269.693 288.894,363.5 299.083,363.5 		"/>
		<polygon opacity="0.33" fill="#A67C52" points="281.564,290.35 279.838,363.5 271.91,363.5 		"/>
	</g>
	<g>
		<path fill="#8C6239" d="M266.741,365.5l4.483-27.099l0.166-0.547l0.655-2.003l2.204,9.228l2.731-6.103l1.981,10.541l2.403-9.845
			l0.729,1.411c1.589,3.081,3.37,6.423,4.438,8.286c0.044-3.606,0.148-11.123,0.154-11.524l0.037-2.701l6.729,15.108l1.82-11.117
			l4.513,26.365H266.741z"/>
		<path fill="#333333" d="M287.281,337.853l6.439,14.457l1.568-9.777l3.794,21.967h-31.642l4.369-26.205
			c0.092-0.274,0.145-0.357,0.145-0.357l2.123,8.933l2.67-5.943l2.14,11.392l2.679-10.97c0,0,5.115,9.916,5.516,9.916
			c0.017,0,0.025-0.016,0.025-0.05C287.107,350.339,287.281,337.853,287.281,337.853 M286.169,332.436l-0.075,5.401
			c-0.005,0.33-0.076,5.471-0.126,9.294c-0.991-1.815-2.216-4.132-3.346-6.321l-1.456-2.823l-0.754,3.086l-1.374,5.628l-1.122-5.974
			l-0.701-3.729l-1.551,3.463l-1.242,2.772l-1.312-5.495l-0.973-4.077l-1.312,3.981l-0.143,0.429l-0.029,0.09l-0.016,0.093
			l-4.369,26.111l-0.229,1.134h1.401h31.642h1.409l-0.238-1.141l-3.794-21.997l-1.201-6.939l-1.143,7.042l-0.929,5.713
			l-4.821-10.817L286.169,332.436L286.169,332.436z"/>
	</g>
	<path opacity="0.1" d="M266.949,364.917L272,351.331v10.846l3.709-4.053c0,0,1.318,4.052,1.855,3.614
		c0.535-0.438,5.396-3.614,5.396-3.614l0.285,2.956l3.314-2.956l12.451,7.562L266.949,364.917z"/>
</g>
<g>
	<g>
		<g>
			<g>
				<polygon fill="#C69C6D" points="321.132,297.792 337.18,248.473 353.78,297.792 				"/>
				<path fill="#333333" d="M337.188,249.815l16.006,47.556h-31.48L337.188,249.815 M337.174,247.13l-0.789,2.424l-15.475,47.556
					l-0.359,1.105h1.162h31.48h1.174l-0.374-1.113l-16.007-47.556L337.174,247.13L337.174,247.13z"/>
			</g>
			<polygon fill="#A67C52" points="337.188,249.977 343.056,297.532 353.193,297.532 			"/>
			<polygon opacity="0.33" fill="#A67C52" points="335.764,260.449 334.047,297.532 326.16,297.532 			"/>
		</g>
		<g>
			<path fill="#8C6239" d="M321.132,297.792l4.546-13.968l0.586-0.905l2.162,4.615l2.699-3.07l2.027,5.498l2.489-5.198l0.421,0.416
				c1.828,1.804,3.854,3.73,4.811,4.542c0.041-1.746,0.152-5.818,0.157-6.029l0.03-1.078l6.623,7.579l1.725-5.39l4.372,12.989
				H321.132z"/>
			<path fill="#333333" d="M341.452,283.705l6.406,7.329l1.561-4.878l3.774,11.215h-31.48l4.349-13.363
				c0.09-0.139,0.143-0.22,0.143-0.22l2.112,4.509l2.657-3.022l2.128,5.77l2.665-5.563c0,0,5.09,5.026,5.487,5.026
				c0.018,0,0.025-0.008,0.025-0.026C341.279,290.035,341.452,283.705,341.452,283.705 M340.668,281.525l-0.059,2.157
				c-0.006,0.18-0.087,3.164-0.137,5.126c-1.057-0.957-2.66-2.493-4.113-3.928l-0.842-0.832l-0.512,1.068l-1.803,3.764l-1.438-3.898
				l-0.49-1.329l-0.936,1.063l-1.807,2.054l-1.564-3.342l-0.646-1.378l-0.826,1.278l-0.143,0.22l-0.061,0.092l-0.033,0.105
				l-4.35,13.363l-0.359,1.105h1.162h31.48h1.174l-0.374-1.113l-3.774-11.215l-0.82-2.436l-0.783,2.448l-1.105,3.455l-5.422-6.204
				L340.668,281.525L340.668,281.525z"/>
		</g>
		<path opacity="0.1" d="M321.234,297.425l5.035-6.888v5.499l3.68-2.055c0,0,1.307,2.054,1.84,1.832
			c0.534-0.223,5.367-1.832,5.367-1.832l0.282,1.499l3.298-1.499l12.392,3.833L321.234,297.425z"/>
	</g>
	<g>
		<g>
			<g>
				<polygon fill="#C69C6D" points="353.146,297.792 369.193,248.473 385.794,297.792 				"/>
				<path fill="#333333" d="M369.2,249.815l16.007,47.556h-31.48L369.2,249.815 M369.187,247.13l-0.788,2.424l-15.474,47.556
					l-0.359,1.105h1.161h31.48h1.174l-0.374-1.113L370,249.546L369.187,247.13L369.187,247.13z"/>
			</g>
			<polygon fill="#A67C52" points="369.2,249.977 375.069,297.532 385.207,297.532 			"/>
			<polygon opacity="0.33" fill="#A67C52" points="367.777,260.449 366.061,297.532 358.174,297.532 			"/>
		</g>
		<g>
			<path fill="#8C6239" d="M353.146,297.792l4.545-13.968l0.588-0.902l2.159,4.611l2.699-3.069l2.028,5.498l2.489-5.198l0.421,0.416
				c1.828,1.804,3.854,3.73,4.811,4.542c0.041-1.746,0.152-5.818,0.157-6.029l0.03-1.078l6.624,7.579l1.724-5.391l4.372,12.99
				H353.146z"/>
			<path fill="#333333" d="M373.466,283.705l6.407,7.329l1.56-4.878l3.774,11.215h-31.48l4.349-13.363
				c0.09-0.139,0.144-0.22,0.144-0.22l2.111,4.509l2.656-3.022l2.129,5.77l2.665-5.563c0,0,5.09,5.026,5.487,5.026
				c0.018,0,0.025-0.008,0.025-0.026C373.293,290.035,373.466,283.705,373.466,283.705 M372.682,281.525l-0.059,2.156
				c-0.006,0.18-0.087,3.164-0.137,5.126c-1.057-0.957-2.66-2.493-4.113-3.928l-0.842-0.832l-0.512,1.068l-1.803,3.764l-1.438-3.898
				l-0.49-1.329l-0.935,1.063l-1.807,2.054l-1.564-3.342l-0.643-1.372l-0.828,1.269l-0.145,0.222l-0.061,0.093l-0.033,0.105
				l-4.349,13.363l-0.359,1.105h1.161h31.48h1.174l-0.374-1.113l-3.774-11.215l-0.82-2.437l-0.783,2.449l-1.104,3.455l-5.423-6.204
				L372.682,281.525L372.682,281.525z"/>
		</g>
		<path opacity="0.1" d="M353.227,297.425l5.012-6.888v5.499l3.703-2.055c0,0,1.316,2.054,1.851,1.832
			c0.534-0.223,5.372-1.832,5.372-1.832l0.285,1.499l3.299-1.499l12.382,3.833L353.227,297.425z"/>
	</g>
	<g>
		<g>
			<g>
				<polygon fill="#C69C6D" points="385.16,297.792 401.208,248.473 417.808,297.792 				"/>
				<path fill="#333333" d="M401.215,249.815l16.006,47.556h-31.48L401.215,249.815 M401.201,247.13l-0.789,2.424l-15.474,47.556
					l-0.359,1.105h1.161h31.48h1.174l-0.374-1.113l-16.006-47.556L401.201,247.13L401.201,247.13z"/>
			</g>
			<polygon fill="#A67C52" points="401.215,249.977 407.084,297.532 417.221,297.532 			"/>
			<polygon opacity="0.33" fill="#A67C52" points="399.791,260.449 398.074,297.532 390.188,297.532 			"/>
		</g>
		<g>
			<path fill="#8C6239" d="M385.16,297.792l4.545-13.969l0.588-0.901l2.159,4.611l2.698-3.07l2.029,5.499l2.489-5.197l0.422,0.416
				c1.826,1.804,3.854,3.73,4.809,4.542c0.042-1.746,0.152-5.818,0.158-6.029l0.029-1.078l6.626,7.579l1.723-5.391l4.372,12.99
				H385.16z"/>
			<path fill="#333333" d="M405.479,283.705l6.407,7.329l1.56-4.878l3.774,11.215h-31.48l4.348-13.363
				c0.091-0.139,0.145-0.22,0.145-0.22l2.111,4.509l2.656-3.022l2.129,5.77l2.665-5.563c0,0,5.09,5.026,5.488,5.026
				c0.016,0,0.024-0.008,0.024-0.026C405.307,290.035,405.479,283.705,405.479,283.705 M404.695,281.525l-0.06,2.156
				c-0.005,0.18-0.086,3.164-0.136,5.126c-1.056-0.957-2.66-2.493-4.113-3.928l-0.842-0.832l-0.512,1.068l-1.804,3.764l-1.438-3.898
				l-0.489-1.329l-0.936,1.063l-1.806,2.054l-1.564-3.342l-0.643-1.372l-0.828,1.269l-0.145,0.221l-0.061,0.093l-0.034,0.106
				l-4.348,13.363l-0.359,1.105h1.161h31.48h1.174l-0.374-1.113l-3.774-11.215l-0.82-2.437l-0.783,2.449l-1.104,3.454l-5.424-6.204
				L404.695,281.525L404.695,281.525z"/>
		</g>
		<path opacity="0.1" d="M385.218,297.425l4.99-6.888v5.499l3.725-2.055c0,0,1.328,2.054,1.862,1.832
			c0.533-0.223,5.377-1.832,5.377-1.832l0.288,1.499l3.302-1.499l12.37,3.833L385.218,297.425z"/>
	</g>
	<g>
		<g>
			<g>
				<polygon fill="#C69C6D" points="417.173,297.792 433.221,248.473 449.821,297.792 				"/>
				<path fill="#333333" d="M433.228,249.815l16.007,47.556h-31.48L433.228,249.815 M433.214,247.13l-0.788,2.424l-15.475,47.556
					l-0.359,1.105h1.162h31.48h1.174l-0.374-1.113l-16.007-47.556L433.214,247.13L433.214,247.13z"/>
			</g>
			<polygon fill="#A67C52" points="433.228,249.977 439.097,297.532 449.234,297.532 			"/>
			<polygon opacity="0.33" fill="#A67C52" points="431.805,260.449 430.088,297.532 422.201,297.532 			"/>
		</g>
		<g>
			<path fill="#8C6239" d="M417.173,297.792l4.545-13.969l0.587-0.904l2.161,4.614l2.698-3.07l2.029,5.499l2.489-5.197l0.422,0.416
				c1.826,1.804,3.854,3.73,4.809,4.542c0.042-1.746,0.152-5.818,0.158-6.029l0.029-1.078l6.625,7.579l1.723-5.391l4.373,12.99
				H417.173z"/>
			<path fill="#333333" d="M437.493,283.705l6.406,7.329l1.56-4.878l3.775,11.215h-31.48l4.348-13.363
				c0.091-0.139,0.144-0.22,0.144-0.22l2.112,4.509l2.656-3.022l2.129,5.77l2.665-5.563c0,0,5.09,5.026,5.488,5.026
				c0.016,0,0.024-0.008,0.024-0.026C437.32,290.035,437.493,283.705,437.493,283.705 M436.709,281.525l-0.06,2.157
				c-0.005,0.18-0.086,3.164-0.136,5.126c-1.056-0.957-2.66-2.493-4.113-3.928l-0.842-0.832l-0.512,1.068l-1.804,3.764l-1.438-3.898
				l-0.49-1.329l-0.935,1.063l-1.806,2.054l-1.565-3.342l-0.646-1.378l-0.826,1.278l-0.142,0.216l-0.062,0.094l-0.035,0.107
				l-4.348,13.363l-0.359,1.105h1.162h31.48h1.174l-0.374-1.113l-3.775-11.215l-0.82-2.437l-0.783,2.449l-1.104,3.454l-5.423-6.204
				L436.709,281.525L436.709,281.525z"/>
		</g>
		<path opacity="0.1" d="M417.209,297.425l4.969-6.888v5.499l3.747-2.055c0,0,1.339,2.054,1.872,1.832
			c0.534-0.223,5.384-1.832,5.384-1.832l0.29,1.499l3.303-1.499l12.36,3.833L417.209,297.425z"/>
	</g>
</g>
<g>
	<g>
		<rect x="795.5" y="309" fill="#754C24" stroke="#333333" stroke-miterlimit="10" width="128" height="37"/>
		<linearGradient id="SVGID_10_" gradientUnits="userSpaceOnUse" x1="859.5" y1="311.96" x2="859.5" y2="342.67">
			<stop  offset="0" style="stop-color:#603813"/>
			<stop  offset="0.0865" style="stop-color:#714822"/>
			<stop  offset="0.2008" style="stop-color:#80572F"/>
			<stop  offset="0.3347" style="stop-color:#895F37"/>
			<stop  offset="0.5337" style="stop-color:#8C6239"/>
			<stop  offset="0.7214" style="stop-color:#896037"/>
			<stop  offset="0.8324" style="stop-color:#815830"/>
			<stop  offset="0.9231" style="stop-color:#734A23"/>
			<stop  offset="1" style="stop-color:#603813"/>
		</linearGradient>
		<rect x="795.5" y="309" fill="url(#SVGID_10_)" stroke="#42210B" stroke-miterlimit="10" width="128" height="37"/>
		<g opacity="0.5">
			<g>
				<path fill="#42210B" d="M795.62,318.651c5.746-0.073,11.464-0.715,17.21-0.804c6.734-0.104,11.937,1.947,18.005,4.52
					c3.558,1.508,6.958-0.467,10.361-1.418c2.575-0.72,5.353-0.389,7.991-0.546c2.328-0.139,6.648-1.52,7.941,1.697
					c0.316,0.789,0.312,1.675,0.646,2.492c1.004,2.445,3.808,2.701,5.989,2.246c1.309-0.273,2.562-1.194,3.671-1.902
					c3.648-2.33,6.163-3.107,10.578-3.117c14.217-0.031,28.445,0.105,42.67,0.131c1.07,0.002,2.652-1.621,0.936-1.624
					c-13.616-0.025-27.355,0.402-40.954-0.091c-3.852-0.14-8.307-0.396-11.721,1.709c-2.175,1.341-6.956,6.053-8.993,1.093
					c-0.487-1.188-0.146-2.633-1.506-3.381c-3.794-2.09-7.738-0.869-11.896-0.784c-6.027,0.124-11.504,3.302-17.324,0.481
					c-10.318-5-21.685-2.465-32.669-2.326C795.491,317.04,793.906,318.673,795.62,318.651L795.62,318.651z"/>
			</g>
		</g>
		<g opacity="0.5">
			<g>
				<path fill="#42210B" d="M923.968,335.358c-9.618-0.069-19.245-1.155-28.854-1.564c-8.29-0.353-18.885-1.643-26.747,1.751
					c-6.015,2.596-15.154,3.183-21.322,0.96c-2.886-1.04-5.566-1.445-8.622-1.508c-2.842-0.059-6.615-1.225-9.373-0.316
					c-1.228,0.404-3.424,0.996-3.984,2.389c-0.65,1.615-0.978,5.427-4.283,4.081c-1.478-0.602-2.825-1.746-4.14-2.628
					c-5.741-3.854-13.924-1.784-20.381-2.064c-1.084-0.047-2.655,1.549-0.936,1.624c3.934,0.171,7.854-0.136,11.789-0.127
					c4.521,0.01,7.072,1.681,10.657,3.971c2.564,1.637,7.277,2.096,8.737-1.461c1.749-4.262,5.318-4.086,9.331-3.848
					c4.159,0.248,7.564,0.922,11.57,2.005c5.082,1.374,11.272,0.781,16.354-0.242c4.087-0.823,7.744-2.444,11.926-2.862
					c5.72-0.571,11.534-0.351,17.267-0.148c10.023,0.355,20.047,1.54,30.075,1.612C924.104,336.99,925.685,335.37,923.968,335.358
					L923.968,335.358z"/>
			</g>
		</g>
	</g>
	<g>
		<g>
			<g>
				<polygon fill="#C69C6D" points="797.034,346.5 828.557,346.5 812.527,373.236 				"/>
				<path fill="#333333" d="M828.017,347.5l-15.484,25.828L797.564,347.5H828 M829.096,346.5h-1.079h-30.452h-1.062l0.532,0.968
					l14.968,25.853l0.521,0.91l0.533-0.883l15.484-25.875L829.096,346.5L829.096,346.5z"/>
			</g>
			<polygon fill="#A67C52" points="812.532,373.327 818.21,347.5 828.017,347.5 			"/>
			<polygon opacity="0.33" fill="#A67C52" points="811.156,367.64 809.495,347.5 801.866,347.5 			"/>
		</g>
		<g>
			<path fill="#8C6239" d="M816.353,354.649c-0.005-0.115-0.114-2.356-0.153-3.298c-0.78,0.353-2.955,1.512-4.892,2.586
				l-0.219,0.121l-2.476-2.902l-2.001,3.046l-2.599-1.66l-2.065,2.477l-0.379-0.523l-4.535-7.997h31.522l-4.198,7.205l-1.609-2.722
				l-6.37,4.144L816.353,354.649z"/>
			<path fill="#333333" d="M828.017,347.5l-3.651,5.947l-1.511-2.721l-6.196,3.945c0,0-0.167-3.458-0.167-3.699
				c0-0.009-0.008-0.023-0.024-0.023c-0.385,0-5.308,2.726-5.308,2.726l-2.578-3.023l-2.059,3.132l-2.571-1.643l-2.042,2.449
				c0,0-0.053,0.1-0.139,0.024l-4.206-7.114H828 M829.096,346.5h-1.079h-30.452h-1.062l0.532,0.968l4.206,7.283l0.051,0.1
				l0.076,0.073l0.149,0.132l0.47,0.393l0.392-0.469l1.697-2.035l2.117,1.353l0.509,0.325l0.331-0.504l1.611-2.453l2.05,2.402
				l0.324,0.38l0.438-0.243c1.656-0.918,3.483-1.896,4.458-2.374c0.043,0.972,0.114,2.44,0.133,2.833l0.052,1.057l0.89-0.572
				l5.654-3.633l1.191,2.089l0.518,0.909l0.538-0.897l3.651-6.141L829.096,346.5L829.096,346.5z"/>
		</g>
		<path opacity="0.1" d="M797.115,347.182l4.885,3.742v-2.987l3.547,1.115c0,0,1.255-1.114,1.771-0.994
			c0.516,0.121,5.188,0.994,5.188,0.994l0.271-0.813l3.189,0.813l11.994-2.081L797.115,347.182z"/>
	</g>
	<g>
		<g>
			<g>
				<polygon fill="#C69C6D" points="828.002,346.5 859.524,346.5 843.495,373.236 				"/>
				<path fill="#333333" d="M858.984,347.5L843.5,373.328L828.532,347.5H859 M860.064,346.5h-1.08h-30.452h-1.062l0.532,0.968
					l14.968,25.853l0.521,0.91l0.533-0.883l15.484-25.875L860.064,346.5L860.064,346.5z"/>
			</g>
			<polygon fill="#A67C52" points="843.5,373.327 849.178,347.5 858.984,347.5 			"/>
			<polygon opacity="0.33" fill="#A67C52" points="842.124,367.64 840.463,347.5 832.834,347.5 			"/>
		</g>
		<g>
			<path fill="#8C6239" d="M847.32,354.649c-0.005-0.115-0.114-2.356-0.153-3.298c-0.78,0.353-2.955,1.512-4.892,2.586l-0.219,0.121
				l-2.476-2.902l-2.001,3.046l-2.599-1.66l-2.065,2.477l-0.379-0.523l-4.535-7.997h31.522l-4.198,7.205l-1.609-2.722l-6.37,4.144
				L847.32,354.649z"/>
			<path fill="#333333" d="M858.984,347.5l-3.651,5.947l-1.511-2.721l-6.196,3.945c0,0-0.167-3.458-0.167-3.699
				c0-0.009-0.008-0.023-0.023-0.023c-0.387,0-5.309,2.726-5.309,2.726l-2.578-3.023l-2.059,3.132l-2.571-1.643l-2.042,2.449
				c0,0-0.053,0.1-0.139,0.024l-4.206-7.114H859 M860.064,346.5h-1.08h-30.452h-1.062l0.532,0.968l4.206,7.283l0.051,0.1
				l0.076,0.073l0.149,0.132l0.47,0.393l0.392-0.469l1.697-2.035l2.117,1.353l0.509,0.325l0.331-0.504l1.611-2.453l2.05,2.402
				l0.324,0.38l0.438-0.243c1.656-0.918,3.483-1.896,4.458-2.374c0.043,0.972,0.114,2.44,0.134,2.833l0.051,1.057l0.891-0.572
				l5.653-3.633l1.191,2.089l0.519,0.909l0.537-0.897l3.651-6.141L860.064,346.5L860.064,346.5z"/>
		</g>
		<path opacity="0.1" d="M828.099,347.182l4.901,3.742v-2.987l3.53,1.115c0,0,1.247-1.114,1.765-0.994
			c0.516,0.121,5.183,0.994,5.183,0.994l0.27-0.813l3.188,0.813l12.002-2.081L828.099,347.182z"/>
	</g>
	<g>
		<g>
			<g>
				<polygon fill="#C69C6D" points="858.97,346.5 890.491,346.5 874.463,373.236 				"/>
				<path fill="#333333" d="M889.951,347.5l-15.483,25.828L859.5,347.5H890 M891.031,346.5h-1.08H859.5h-1.062l0.532,0.968
					l14.968,25.853l0.521,0.91l0.533-0.883l15.483-25.875L891.031,346.5L891.031,346.5z"/>
			</g>
			<polygon fill="#A67C52" points="874.468,373.327 880.146,347.5 889.951,347.5 			"/>
			<polygon opacity="0.33" fill="#A67C52" points="873.092,367.64 871.431,347.5 863.802,347.5 			"/>
		</g>
		<g>
			<path fill="#8C6239" d="M878.288,354.649c-0.005-0.115-0.114-2.356-0.153-3.298c-0.78,0.353-2.955,1.512-4.892,2.586
				l-0.219,0.121l-2.476-2.902l-2.001,3.046l-2.599-1.66l-2.065,2.477l-0.379-0.523l-4.535-7.997h31.521l-4.197,7.206l-1.609-2.722
				l-6.37,4.144L878.288,354.649z"/>
			<path fill="#333333" d="M889.951,347.5l-3.65,5.947l-1.511-2.721l-6.196,3.945c0,0-0.167-3.458-0.167-3.699
				c0-0.009-0.008-0.023-0.024-0.023c-0.385,0-5.308,2.726-5.308,2.726l-2.578-3.023l-2.059,3.132l-2.571-1.643l-2.042,2.449
				c0,0-0.053,0.1-0.139,0.024L859.5,347.5H890 M891.03,346.5h-1.079H859.5h-1.062l0.532,0.968l4.206,7.283l0.051,0.1l0.076,0.073
				l0.149,0.132l0.47,0.393l0.392-0.469l1.697-2.035l2.117,1.353l0.509,0.325l0.331-0.504l1.611-2.453l2.05,2.402l0.324,0.38
				l0.438-0.243c1.656-0.918,3.483-1.896,4.458-2.374c0.043,0.972,0.114,2.44,0.133,2.833l0.052,1.057l0.89-0.572l5.654-3.633
				l1.191,2.089l0.518,0.909l0.538-0.897l3.65-6.141L891.03,346.5L891.03,346.5z"/>
		</g>
		<path opacity="0.1" d="M859.082,347.182l4.918,3.742v-2.987l3.514,1.115c0,0,1.24-1.114,1.757-0.994
			c0.516,0.121,5.179,0.994,5.179,0.994l0.268-0.813l3.188,0.813l12.008-2.081L859.082,347.182z"/>
	</g>
	<g>
		<g>
			<g>
				<polygon fill="#C69C6D" points="889.938,346.5 921.459,346.5 905.431,373.236 				"/>
				<path fill="#333333" d="M920.919,347.5l-15.483,25.828L890.468,347.5H921 M921.998,346.5h-1.079h-30.451h-1.062l0.532,0.968
					l14.968,25.853l0.521,0.91l0.533-0.883l15.483-25.875L921.998,346.5L921.998,346.5z"/>
			</g>
			<polygon fill="#A67C52" points="905.436,373.327 911.113,347.5 920.919,347.5 			"/>
			<polygon opacity="0.33" fill="#A67C52" points="904.06,367.64 902.398,347.5 894.77,347.5 			"/>
		</g>
		<g>
			<path fill="#8C6239" d="M909.256,354.649c-0.005-0.115-0.114-2.356-0.153-3.298c-0.78,0.353-2.955,1.512-4.892,2.586
				l-0.219,0.121l-2.476-2.902l-2.001,3.046l-2.599-1.66l-2.065,2.477l-0.379-0.523l-4.535-7.997h31.521l-4.197,7.206l-1.609-2.722
				l-6.37,4.144L909.256,354.649z"/>
			<path fill="#333333" d="M920.919,347.5l-3.65,5.947l-1.511-2.721l-6.196,3.945c0,0-0.167-3.458-0.167-3.699
				c0-0.009-0.008-0.023-0.023-0.023c-0.387,0-5.309,2.726-5.309,2.726l-2.578-3.023l-2.059,3.132l-2.571-1.643l-2.042,2.449
				c0,0-0.053,0.1-0.139,0.024l-4.206-7.114H921 M921.998,346.5h-1.079h-30.451h-1.062l0.532,0.968l4.206,7.283l0.051,0.1
				l0.076,0.073l0.149,0.132l0.47,0.393l0.392-0.469l1.697-2.035l2.117,1.353l0.509,0.325l0.331-0.504l1.611-2.453l2.05,2.402
				l0.324,0.38l0.438-0.243c1.656-0.918,3.483-1.896,4.458-2.374c0.043,0.972,0.114,2.44,0.134,2.833l0.051,1.057l0.891-0.572
				l5.653-3.633l1.191,2.089l0.519,0.909l0.537-0.897l3.65-6.141L921.998,346.5L921.998,346.5z"/>
		</g>
		<path opacity="0.1" d="M890.066,347.182l4.934,3.742v-2.987l3.498,1.115c0,0,1.231-1.114,1.748-0.994
			c0.516,0.121,5.176,0.994,5.176,0.994l0.265-0.813l3.187,0.813l12.016-2.081L890.066,347.182z"/>
	</g>
</g>
<text transform="matrix(1 0 0 1 284.4541 105.8408)"><tspan x="0" y="0" font-family="'GROBOLD'" font-size="69.9142">FREE</tspan><tspan x="-35.69" y="83.897" font-family="'GROBOLD'" font-size="69.9142">SPIKES</tspan></text>
</svg>
